<?xml version="1.0" encoding="UTF-8"?>
<!DOCTYPE svg PUBLIC "-//W3C//DTD SVG 1.1//EN" "http://www.w3.org/Graphics/SVG/1.1/DTD/svg11.dtd">
<!-- Creator: CorelDRAW 2019 (64-Bit) -->
<svg xmlns="http://www.w3.org/2000/svg" xml:space="preserve" width="32px" height="39px" version="1.1" style="shape-rendering:geometricPrecision; text-rendering:geometricPrecision; image-rendering:optimizeQuality; fill-rule:evenodd; clip-rule:evenodd"
viewBox="0 0 32 38.4"
 xmlns:xlink="http://www.w3.org/1999/xlink">
 <defs>
  <style type="text/css">
   <![CDATA[
    .fil0 {fill:black}
   ]]>
  </style>
 </defs>
 <g id="Layer_x0020_1">
  <metadata id="CorelCorpID_0Corel-Layer"/>
  <path class="fil0" d="M32 0l-32 0 0 38.4 22.4 0 9.6 -9.6 0 -28.8zm-9.6 28.8l6.98 0 -6.98 7.02 0 -7.02zm-4.8 1.6l-12.8 0 0 1.6 12.8 0 0 -1.6zm0 -4.8l-12.8 0 0 1.6 12.8 0 0 -1.6zm9.6 -3.2l0 -1.6 -22.4 0 0 1.6 22.4 0zm-11.29 -7.95c-1.84,-0.42 -3.55,-0.79 -2.72,-2.36 2.52,-4.75 0.67,-7.29 -1.99,-7.29 -2.71,0 -4.51,2.64 -1.99,7.29 0.85,1.58 -0.92,1.95 -2.72,2.36 -1.63,0.38 -1.69,1.19 -1.69,2.62l0 0.53 12.8 0 0 -0.52c0.01,-1.43 -0.05,-2.25 -1.69,-2.63l0 0zm11.29 1.55l-6.4 0 0 1.6 6.4 0 0 -1.6zm0 -3.2l0 -1.6 -6.4 0 0 1.6 6.4 0zm0 -6.4l-6.4 0 0 1.6 6.4 0 0 -1.6z"/>
 </g>
</svg>
