<?xml version="1.0" encoding="UTF-8"?>
<!DOCTYPE svg PUBLIC "-//W3C//DTD SVG 1.1//EN" "http://www.w3.org/Graphics/SVG/1.1/DTD/svg11.dtd">
<!-- Creator: CorelDRAW 2019 (64-Bit) -->
<svg xmlns="http://www.w3.org/2000/svg" xml:space="preserve" width="32px" height="41px" version="1.1" style="shape-rendering:geometricPrecision; text-rendering:geometricPrecision; image-rendering:optimizeQuality; fill-rule:evenodd; clip-rule:evenodd"
viewBox="0 0 32 41.22"
 xmlns:xlink="http://www.w3.org/1999/xlink">
 <defs>
  <style type="text/css">
   <![CDATA[
    .fil0 {fill:black}
   ]]>
  </style>
 </defs>
 <g id="Layer_x0020_1">
  <metadata id="CorelCorpID_0Corel-Layer"/>
  <path class="fil0" d="M14.92 0.04c-5.15,0.35 -9.79,3.15 -12.51,7.53 -0.8,1.29 -1.43,2.71 -1.83,4.15 -1.04,3.81 -0.67,7.84 1.05,11.34 0.66,1.33 1.28,2.27 2.33,3.51 0.12,0.14 2.59,3.36 5.49,7.15 3.16,4.12 5.36,6.96 5.47,7.06 0.64,0.58 1.52,0.58 2.16,0 0.11,-0.1 2.31,-2.94 5.47,-7.06 2.9,-3.79 5.37,-7.01 5.49,-7.15 1.05,-1.24 1.67,-2.18 2.33,-3.51 1.94,-3.95 2.16,-8.61 0.59,-12.72 -1.21,-3.18 -3.32,-5.81 -6.18,-7.72 -2.84,-1.89 -6.42,-2.82 -9.86,-2.58l0 0zm1.92 7.75c0.77,0.1 1.37,0.28 2.07,0.62 1.9,0.93 3.2,2.61 3.65,4.73 0.09,0.4 0.1,0.5 0.1,1.26 0,0.92 -0.03,1.19 -0.24,1.91 -0.56,1.93 -2.02,3.55 -3.89,4.31 -0.69,0.29 -1.26,0.42 -2.04,0.48 -1.01,0.09 -2.04,-0.08 -3.02,-0.48 -1.87,-0.76 -3.33,-2.38 -3.89,-4.31 -0.21,-0.72 -0.24,-0.99 -0.24,-1.91 0,-0.76 0.01,-0.86 0.1,-1.26 0.38,-1.81 1.39,-3.32 2.89,-4.31 0.61,-0.4 1.51,-0.78 2.2,-0.93 0.72,-0.16 1.6,-0.2 2.31,-0.11l0 0z"/>
 </g>
</svg>
