<?xml version="1.0" encoding="UTF-8"?>
<!DOCTYPE svg PUBLIC "-//W3C//DTD SVG 1.1//EN" "http://www.w3.org/Graphics/SVG/1.1/DTD/svg11.dtd">
<!-- Creator: CorelDRAW 2019 (64-Bit) -->
<svg xmlns="http://www.w3.org/2000/svg" xml:space="preserve" width="32px" height="37px" version="1.1" style="shape-rendering:geometricPrecision; text-rendering:geometricPrecision; image-rendering:optimizeQuality; fill-rule:evenodd; clip-rule:evenodd"
viewBox="0 0 30.29 35.01"
 xmlns:xlink="http://www.w3.org/1999/xlink">
 <defs>
  <style type="text/css">
   <![CDATA[
    .fil0 {fill:black}
   ]]>
  </style>
 </defs>
 <g id="Layer_x0020_1">
  <metadata id="CorelCorpID_0Corel-Layer"/>
  <path class="fil0" d="M16.07 35.01c-0.63,-0.01 -1.25,-0.04 -1.86,-0.1 -1.52,-0.15 -2.97,-0.5 -4.34,-1.01 0.62,-0.1 0.83,-0.6 0.83,-1.06 0,-0.52 0.01,-1.98 0,-3.82 -6.13,1.33 -7.4,-2.91 -7.4,-2.91 -1,-2.55 -2.45,-3.22 -2.45,-3.22 -2,-1.37 0.15,-1.35 0.15,-1.35 2.21,0.16 3.38,2.28 3.38,2.28 1.97,3.37 5.16,2.39 6.42,1.83 0.2,-1.42 0.77,-2.4 1.4,-2.95 -4.9,-0.55 -10.05,-2.45 -10.05,-10.9 0,-2.4 0.86,-4.37 2.27,-5.91 -0.22,-0.56 -0.98,-2.8 0.22,-5.84 0,0 1.85,-0.59 6.06,2.26 1.76,-0.49 3.65,-0.73 5.52,-0.74 1.88,0.01 3.76,0.25 5.52,0.74 4.21,-2.85 6.06,-2.26 6.06,-2.26 1.21,3.04 0.45,5.28 0.22,5.84 1.41,1.54 2.27,3.51 2.27,5.91 0,8.48 -5.16,10.34 -10.07,10.88 0.79,0.69 1.51,2.01 1.51,4.07 0,2.75 0,5.38 0,6.1 0,0.39 0.16,0.81 0.58,0.98 -1.93,0.75 -4.04,1.17 -6.24,1.18z"/>
 </g>
</svg>
