<svg aria-hidden="true" style="position: absolute; width: 0; height: 0; overflow: hidden;" version="1.1" xmlns="http://www.w3.org/2000/svg" xmlns:xlink="http://www.w3.org/1999/xlink">
<defs>
<symbol id="icon-api" viewBox="0 0 32 32">
<path d="M13.783-0c-0.66 0-1.239 0.46-1.37 1.109l-0.304 1.543c-2.157 0.626-4.125 1.758-5.739 3.304l-1.478-0.5c-0.627-0.21-1.322 0.059-1.652 0.63l-2.196 3.826c-0.33 0.573-0.213 1.304 0.283 1.739l1.174 1.043c-0.272 1.105-0.413 2.209-0.413 3.304 0 1.094 0.14 2.198 0.413 3.304l-1.174 1.044c-0.496 0.436-0.612 1.166-0.283 1.739l2.196 3.826c0.33 0.573 1.025 0.844 1.652 0.63l1.478-0.5c1.615 1.548 3.583 2.678 5.739 3.304l0.304 1.544c0.132 0.646 0.71 1.109 1.37 1.109h4.435c0.661 0 1.239-0.46 1.37-1.109l0.304-1.544c2.157-0.625 4.125-1.756 5.739-3.304l1.478 0.5c0.628 0.213 1.3-0.059 1.63-0.63l2.217-3.826c0.33-0.573 0.214-1.304-0.283-1.739l-1.174-1.044c0.273-1.105 0.413-2.209 0.413-3.304s-0.14-2.2-0.413-3.304l1.174-1.043c0.496-0.436 0.613-1.167 0.283-1.739l-2.196-3.826c-0.331-0.574-1.028-0.843-1.652-0.63l-1.478 0.5c-1.615-1.547-3.583-2.678-5.739-3.304l-0.304-1.544c-0.132-0.648-0.709-1.109-1.37-1.109h-4.435zM10.087 11.13c0.305 0 0.584 0.208 0.674 0.5l2.435 7.913c0.020 0.066 0.022 0.148 0.022 0.217v0.413c0 0.385-0.312 0.696-0.696 0.696s-0.696-0.311-0.696-0.696v-0.326l-0.326-1.065h-2.826l-0.326 1.065v0.326c0 0.385-0.312 0.696-0.696 0.696s-0.696-0.311-0.696-0.696v-0.413c0-0.070 0.002-0.151 0.022-0.217l2.435-7.913c0.090-0.292 0.368-0.5 0.674-0.5zM15.304 11.13h2.783c1.151 0 2.087 0.936 2.087 2.087v2.087c0 1.151-0.936 2.087-2.087 2.087h-2.087v2.783c0 0.385-0.312 0.696-0.696 0.696s-0.696-0.311-0.696-0.696v-8.348c0-0.384 0.312-0.696 0.696-0.696zM22.261 11.13h1.391c0.385 0 0.696 0.312 0.696 0.696s-0.311 0.696-0.696 0.696v6.957c0.385 0 0.696 0.311 0.696 0.696s-0.311 0.696-0.696 0.696h-1.391c-0.385 0-0.696-0.311-0.696-0.696s0.311-0.696 0.696-0.696v-6.957c-0.385 0-0.696-0.312-0.696-0.696s0.311-0.696 0.696-0.696zM16 12.522v3.478h2.087c0.384 0 0.696-0.312 0.696-0.696v-2.087c0-0.383-0.312-0.696-0.696-0.696h-2.087zM10.087 14.196l-0.978 3.196h1.957l-0.978-3.196z"></path>
</symbol>
<symbol id="icon-circle" viewBox="0 0 32 32">
<path d="M32 16c0 8.837-7.163 16-16 16s-16-7.163-16-16c0-8.837 7.163-16 16-16s16 7.163 16 16z"></path>
</symbol>
<symbol id="icon-css3" viewBox="0 0 32 32">
<path fill="#1572b6" style="fill: var(--color5, #1572b6)" d="M4.459 28.801l-2.567-28.801h28.215l-2.57 28.797-11.554 3.203-11.523-3.199z"></path>
<path fill="#33a9dc" style="fill: var(--color6, #33a9dc)" d="M16 29.552l9.337-2.589 2.197-24.608h-11.534v27.197z"></path>
<path fill="#fff" style="fill: var(--color4, #fff)" d="M16 12.79h4.674l0.322-3.617h-4.997v-3.533h8.857l-0.085 0.947-0.867 9.735h-7.905v-3.533z"></path>
<path fill="#ebebeb" style="fill: var(--color7, #ebebeb)" d="M16.022 21.963l-0.016 0.005-3.934-1.063-0.251-2.817h-3.546l0.495 5.546 7.235 2.009 0.017-0.005v-3.675z"></path>
<path fill="#fff" style="fill: var(--color4, #fff)" d="M20.374 16.173l-0.425 4.73-3.939 1.063v3.675l7.241-2.007 0.054-0.597 0.614-6.865h-3.544z"></path>
<path fill="#ebebeb" style="fill: var(--color7, #ebebeb)" d="M16.013 5.64v3.533h-8.533l-0.071-0.794-0.161-1.791-0.085-0.947h8.849z"></path>
<path fill="#ebebeb" style="fill: var(--color7, #ebebeb)" d="M16 12.79v3.533h-3.885l-0.071-0.794-0.16-1.791-0.085-0.947h4.2z"></path>
</symbol>
<symbol id="icon-email" viewBox="0 0 32 32">
<path fill="#d80027" style="fill: var(--color8, #d80027)" d="M26.928 16.216v0l-7.415 7.003 10.537 8.78v-18.732z"></path>
<path fill="#ff5023" style="fill: var(--color9, #ff5023)" d="M1.951 13.268v18.732l10.537-8.78z"></path>
<path fill="#d80027" style="fill: var(--color8, #d80027)" d="M12.488 23.22l-10.537 8.78h14.049v-5.463z"></path>
<path fill="#a2001d" style="fill: var(--color10, #a2001d)" d="M16 26.537v5.463h14.049l-10.537-8.78z"></path>
<path fill="#ff5023" style="fill: var(--color9, #ff5023)" d="M5.073 10.32l-3.121 2.948h3.121z"></path>
<path fill="#ff5023" style="fill: var(--color9, #ff5023)" d="M30.049 13.268l-3.122-2.948 0 2.948z"></path>
<path fill="#ff5023" style="fill: var(--color9, #ff5023)" d="M16 0l-4.979 4.702 9.944-0.012z"></path>
<path fill="#a2001d" style="fill: var(--color10, #a2001d)" d="M26.928 16.216l3.121-2.948h-3.121z"></path>
<path fill="#a2001d" style="fill: var(--color10, #a2001d)" d="M16 26.537l-10.928-10.321 0-2.947h-3.121l10.537 9.951z"></path>
<path fill="#dedde0" style="fill: var(--color11, #dedde0)" d="M5.072 16.216l10.928 10.321 10.928-10.32-0-2.948-0-2.948-0-5.637-21.854 0.026-0.001 5.611-0 2.948-0 2.947zM8.976 14.049h14.049v2.341h-14.049v-2.341zM8.976 11.707v-2.341h14.049v2.341h-14.049z"></path>
<path fill="#fff" style="fill: var(--color4, #fff)" d="M8.976 9.366h14.049v2.341h-14.049v-2.341z"></path>
<path fill="#fff" style="fill: var(--color4, #fff)" d="M8.976 14.049h14.049v2.341h-14.049v-2.341z"></path>
</symbol>
<symbol id="icon-figma" viewBox="0 0 32 32">
<path fill="#e64a19" style="fill: var(--color12, #e64a19)" d="M17.524 10.667h-6.095c-2.946 0-5.333-2.388-5.333-5.333v0c0-2.946 2.388-5.333 5.333-5.333h6.095v10.667z"></path>
<path fill="#7c4dff" style="fill: var(--color13, #7c4dff)" d="M16.762 21.333h-5.333c-2.946 0-5.333-2.388-5.333-5.333v0c0-2.946 2.388-5.333 5.333-5.333h5.333v10.667z"></path>
<path fill="#66bb6a" style="fill: var(--color14, #66bb6a)" d="M11.429 32v0c-2.946 0-5.333-2.388-5.333-5.333v0c0-2.946 2.388-5.333 5.333-5.333h5.333v5.333c0 2.946-2.388 5.333-5.333 5.333z"></path>
<path fill="#ff7043" style="fill: var(--color15, #ff7043)" d="M22.095 10.667h-5.333v-10.667h5.333c2.946 0 5.333 2.388 5.333 5.333v0c0 2.946-2.388 5.333-5.333 5.333z"></path>
<path fill="#29b6f6" style="fill: var(--color16, #29b6f6)" d="M27.429 16c0 2.946-2.388 5.333-5.333 5.333s-5.333-2.388-5.333-5.333c0-2.946 2.388-5.333 5.333-5.333s5.333 2.388 5.333 5.333z"></path>
</symbol>
<symbol id="icon-git" viewBox="0 0 32 32">
<path fill="#f4511e" style="fill: var(--color17, #f4511e)" d="M31.326 14.4l-13.726-13.726c-0.421-0.421-1.011-0.674-1.6-0.674 0 0 0 0 0 0-0.589 0-1.179 0.253-1.6 0.674l-2.947 2.947 3.453 3.453c0.337-0.168 0.674-0.253 1.095-0.253 1.432 0 2.526 1.095 2.526 2.526 0 0.421-0.084 0.758-0.253 1.095l3.368 3.368c0.337-0.168 0.674-0.253 1.095-0.253 1.432 0 2.526 1.095 2.526 2.526s-1.095 2.526-2.526 2.526c-1.432 0-2.526-1.095-2.526-2.526 0-0.421 0.084-0.758 0.253-1.095l-3.368-3.368c-0.084 0-0.168 0.084-0.253 0.084v8.758c1.011 0.337 1.684 1.263 1.684 2.358 0 1.432-1.095 2.526-2.526 2.526s-2.526-1.095-2.526-2.526c0-1.095 0.674-2.021 1.684-2.358v-8.842c-1.011-0.337-1.684-1.263-1.684-2.358 0-0.421 0.084-0.758 0.253-1.095l-3.453-3.453-9.6 9.684c-0.421 0.421-0.674 1.011-0.674 1.6s0.253 1.179 0.674 1.6l13.726 13.726c0 0 0 0 0 0 0.421 0.421 1.011 0.674 1.6 0.674s1.179-0.253 1.6-0.674l13.726-13.726c0.421-0.421 0.674-1.011 0.674-1.6s-0.253-1.179-0.674-1.6z"></path>
</symbol>
<symbol id="icon-graphql" viewBox="0 0 32 32">
<path fill="#ff4081" style="fill: var(--color18, #ff4081)" d="M16 30.692l-12.444-7.354v-14.677l12.444-7.354 12.444 7.354v14.677l-12.444 7.354zM4.978 22.528l11.022 6.513 11.022-6.513v-13.056l-11.022-6.513-11.022 6.513v13.056z"></path>
<path fill="#ff4081" style="fill: var(--color18, #ff4081)" d="M18.489 2.489c0 1.375-1.114 2.489-2.489 2.489s-2.489-1.114-2.489-2.489c0-1.375 1.114-2.489 2.489-2.489s2.489 1.114 2.489 2.489z"></path>
<path fill="#ff4081" style="fill: var(--color18, #ff4081)" d="M18.489 29.511c0 1.375-1.114 2.489-2.489 2.489s-2.489-1.114-2.489-2.489c0-1.375 1.114-2.489 2.489-2.489s2.489 1.114 2.489 2.489z"></path>
<path fill="#ff4081" style="fill: var(--color18, #ff4081)" d="M7.111 22.4c0 1.375-1.114 2.489-2.489 2.489s-2.489-1.114-2.489-2.489c0-1.375 1.114-2.489 2.489-2.489s2.489 1.114 2.489 2.489z"></path>
<path fill="#ff4081" style="fill: var(--color18, #ff4081)" d="M29.867 22.4c0 1.375-1.114 2.489-2.489 2.489s-2.489-1.114-2.489-2.489c0-1.375 1.114-2.489 2.489-2.489s2.489 1.114 2.489 2.489z"></path>
<path fill="#ff4081" style="fill: var(--color18, #ff4081)" d="M7.111 9.6c0 1.375-1.114 2.489-2.489 2.489s-2.489-1.114-2.489-2.489c0-1.375 1.114-2.489 2.489-2.489s2.489 1.114 2.489 2.489z"></path>
<path fill="#ff4081" style="fill: var(--color18, #ff4081)" d="M29.867 9.6c0 1.375-1.114 2.489-2.489 2.489s-2.489-1.114-2.489-2.489c0-1.375 1.114-2.489 2.489-2.489s2.489 1.114 2.489 2.489z"></path>
<path fill="#ff4081" style="fill: var(--color18, #ff4081)" d="M28.956 23.467h-25.913l12.956-22.771 12.956 22.771zM5.49 22.044h21.020l-10.51-18.473-10.51 18.473z"></path>
</symbol>
<symbol id="icon-html5" viewBox="0 0 32 32">
<path fill="#e65100" style="fill: var(--color19, #e65100)" d="M30.316 0h-28.632l2.526 28.632 11.79 3.368 11.79-3.368 2.526-28.632z"></path>
<path fill="#ff6d00" style="fill: var(--color20, #ff6d00)" d="M16 2.526v26.863l9.432-2.695 2.105-24.168z"></path>
<path fill="#fff" style="fill: var(--color4, #fff)" d="M16 16.842v-3.368h7.242l-0.589 9.684-6.653 2.189v-3.537l3.453-1.179 0.253-3.789h-3.705zM23.495 10.105l0.253-3.368h-7.747v3.368h7.495z"></path>
<path fill="#eee" style="fill: var(--color21, #eee)" d="M16 21.811v3.537l-6.653-2.189-0.337-4.632h3.368l0.168 2.105 3.453 1.179zM11.874 10.105h4.126v-3.368h-7.663l0.589 10.105h7.074v-3.368h-3.874l-0.253-3.368z"></path>
</symbol>
<symbol id="icon-javaScript" viewBox="0 0 32 32">
<path fill="#ffd600" style="fill: var(--color22, #ffd600)" d="M0 32v-32h32v32h-32z"></path>
<path fill="#000001" style="fill: var(--color23, #000001)" d="M20.923 23.953c0.615 0.999 1.284 1.956 2.7 1.956 1.189 0 1.813-0.591 1.813-1.409 0-0.979-0.645-1.326-1.954-1.896l-0.717-0.306c-2.070-0.878-3.447-1.979-3.447-4.303 0-2.142 1.64-3.772 4.203-3.772 1.825 0 3.136 0.632 4.082 2.287l-2.235 1.428c-0.492-0.878-1.023-1.224-1.847-1.224-0.841 0-1.373 0.531-1.373 1.224 0 0.857 0.533 1.204 1.764 1.734l0.717 0.306c2.44 1.039 3.816 2.1 3.816 4.486 0 2.571-2.030 3.98-4.756 3.98-2.666 0-4.18-1.338-5.022-2.994l2.256-1.498zM10.624 24.026c0.45 0.805 1.133 1.425 2.116 1.425 0.94 0 1.482-0.372 1.482-1.816v-9.412h2.963v9.868c0 2.993-1.736 4.355-4.271 4.355-2.291 0-3.944-1.552-4.618-2.994l2.328-1.425z"></path>
</symbol>
<symbol id="icon-logo" viewBox="0 0 781.04 781.04">
<path d="M390.62 490.49c-92.85,0 -180.84,-2.68 -259.02,-57.4 -78.95,-55.28 -129.69,-152.69 -130.78,-332.72l-0.61 -100.36 360.45 -0.01 0 199.95 -152.08 0c7.89,37.08 20.72,58.53 36.96,69.9 28.18,19.73 84.49,20.7 145.08,20.7 92.86,0 180.85,2.68 259.03,57.41 78.95,55.27 129.69,152.68 130.78,332.71l0.61 100.37 -360.45 0 0 -199.95 152.08 0c-7.89,-37.08 -20.72,-58.53 -36.96,-69.9 -28.18,-19.73 -84.49,-20.7 -145.09,-20.7zm340.85 -150.62c30.42,-56.9 48.11,-134.01 48.75,-239.5l0.6 -100.37 -360.44 0 0 199.95 152.07 0c-3.88,18.26 -8.97,32.73 -15.07,44.08 43.47,9.79 85.62,26.52 126.24,54.95 17.09,11.97 33.09,25.51 47.85,40.89zm-682.11 101.3c-30.42,56.9 -48.11,134.01 -48.75,239.5l-0.61 100.36 360.44 0.01 0 -199.95 -152.07 0c3.88,-18.27 8.97,-32.74 15.07,-44.08 -43.47,-9.79 -85.62,-26.52 -126.23,-54.96 -17.1,-11.97 -33.1,-25.51 -47.85,-40.88z"/>
 </symbol>
<symbol id="icon-mongodb" viewBox="0 0 32 32">
<path fill="#13aa52" style="fill: var(--color3, #13aa52)" d="M32 16c0 8.837-7.163 16-16 16s-16-7.163-16-16c0-8.837 7.163-16 16-16s16 7.163 16 16z"></path>
<path fill="#fff" style="fill: var(--color4, #fff)" d="M20.277 14.045c-1.011-4.46-3.399-5.927-3.656-6.487-0.281-0.395-0.566-1.098-0.566-1.098-0.005-0.012-0.012-0.033-0.021-0.053-0.029 0.395-0.044 0.548-0.418 0.947-0.579 0.452-3.548 2.944-3.79 8.012-0.225 4.726 3.414 7.543 3.906 7.902l0.056 0.040v-0.003c0.003 0.024 0.156 1.125 0.264 2.292h0.386c0.106-0.953 0.248-1.788 0.436-2.607l-0.029 0.152 0.031-0.020c0.234-0.168 0.439-0.337 0.632-0.518l-0.004 0.004 0.023-0.020c1.046-0.967 2.927-3.202 2.909-6.767-0.004-0.63-0.061-1.243-0.167-1.839l0.010 0.066zM16.011 20.598s0-6.629 0.219-6.628c0.171 0 0.392 8.55 0.392 8.55-0.304-0.037-0.61-1.407-0.61-1.923z"></path>
</symbol>
<symbol id="icon-mui" viewBox="0 0 32 32">
<path fill="#29b6f6" style="fill: var(--color16, #29b6f6)" d="M0 2.783l4.174 2.783v13.913l-4.174-2.783z"></path>
<path fill="#0288d1" style="fill: var(--color24, #0288d1)" d="M32 13.217l-4.174 2.783v9.043l4.174-2.783z"></path>
<path fill="#0288d1" style="fill: var(--color24, #0288d1)" d="M32 3.478l-4.174 2.783v4.87l4.174-2.783z"></path>
<path fill="#0288d1" style="fill: var(--color24, #0288d1)" d="M23.652 2.783l-4.174 2.783v13.913l4.174-2.783z"></path>
<path fill="#29b6f6" style="fill: var(--color16, #29b6f6)" d="M0 7.652l11.826 7.652v-4.87l-11.826-7.652z"></path>
<path fill="#0288d1" style="fill: var(--color24, #0288d1)" d="M23.652 7.652l-11.826 7.652v-4.87l11.826-7.652z"></path>
<path fill="#0288d1" style="fill: var(--color24, #0288d1)" d="M23.652 17.391l-11.826 7.652v-4.87l11.826-7.652z"></path>
<path fill="#0288d1" style="fill: var(--color24, #0288d1)" d="M32 22.956l-11.826 7.652v-4.87l11.826-7.652z"></path>
<path fill="#29b6f6" style="fill: var(--color16, #29b6f6)" d="M20.174 25.576l-8.348-5.402v4.87l8.348 5.402z"></path>
</symbol>
<symbol id="icon-node.js" viewBox="0 0 32 32">
<path fill="#21a366" style="fill: var(--color25, #21a366)" d="M16.005 32c-0.429 0-0.854-0.112-1.23-0.329l-3.914-2.318c-0.585-0.327-0.3-0.443-0.107-0.509 0.78-0.273 0.937-0.335 1.77-0.808 0.087-0.050 0.202-0.032 0.291 0.021l3.007 1.785c0.108 0.059 0.263 0.059 0.363 0l11.726-6.768c0.108-0.062 0.179-0.188 0.179-0.317v-13.53c0-0.135-0.070-0.255-0.182-0.323l-11.72-6.763c-0.108-0.064-0.252-0.064-0.361 0l-11.719 6.763c-0.114 0.064-0.186 0.19-0.186 0.32v13.531c0 0.129 0.070 0.253 0.182 0.314l3.211 1.855c1.743 0.872 2.809-0.155 2.809-1.188v-13.354c0-0.19 0.149-0.338 0.341-0.338h1.485c0.185 0 0.338 0.146 0.338 0.338v13.361c0 2.325-1.268 3.66-3.472 3.66-0.678 0-1.212 0-2.703-0.734l-3.076-1.773c-0.76-0.441-1.23-1.263-1.23-2.14v-13.531c0-0.881 0.47-1.702 1.23-2.137l11.738-6.771c0.742-0.42 1.729-0.42 2.466 0l11.723 6.774c0.756 0.437 1.229 1.256 1.229 2.137v13.531c0 0.878-0.473 1.696-1.23 2.137l-11.723 6.771c-0.376 0.217-0.802 0.329-1.235 0.329z"></path>
<path fill="#21a366" style="fill: var(--color25, #21a366)" d="M19.627 22.676c-5.13 0-6.206-2.355-6.206-4.33 0-0.188 0.152-0.338 0.34-0.338h1.515c0.167 0 0.309 0.122 0.335 0.287 0.229 1.543 0.91 2.322 4.012 2.322 2.471 0 3.522-0.558 3.522-1.869 0-0.754-0.3-1.315-4.138-1.69-3.211-0.317-5.195-1.024-5.195-3.592 0-2.366 1.996-3.775 5.339-3.775 3.754 0 5.615 1.303 5.85 4.103 0.009 0.097-0.026 0.19-0.091 0.261-0.064 0.067-0.155 0.108-0.249 0.108h-1.523c-0.158 0-0.297-0.111-0.329-0.264-0.367-1.623-1.253-2.142-3.663-2.142-2.697 0-3.011 0.939-3.011 1.643 0 0.854 0.37 1.103 4.009 1.585 3.604 0.478 5.316 1.153 5.316 3.686 0 2.553-2.131 4.018-5.847 4.018z"></path>
</symbol>
<symbol id="icon-react.js" viewBox="0 0 32 32">
<path fill="#80deea" style="fill: var(--color26, #80deea)" d="M16 22.956c-8.974 0-16-3.061-16-6.957s7.026-6.957 16-6.957c8.974 0 16 3.061 16 6.957s-7.026 6.957-16 6.957zM16 10.435c-8.765 0-14.609 2.852-14.609 5.565s5.843 5.565 14.609 5.565 14.609-2.852 14.609-5.565c0-2.713-5.843-5.565-14.609-5.565z"></path>
<path fill="#80deea" style="fill: var(--color26, #80deea)" d="M9.809 30.33c-0.696 0-1.252-0.139-1.809-0.487-3.409-1.948-2.504-9.53 1.948-17.322v0c2.087-3.617 4.661-6.678 7.165-8.626 2.713-2.087 5.148-2.713 6.817-1.739 1.739 0.974 2.365 3.409 1.948 6.817-0.417 3.2-1.809 6.957-3.896 10.574s-4.661 6.678-7.165 8.626c-1.809 1.391-3.548 2.157-5.009 2.157zM22.191 3.061c-1.113 0-2.574 0.626-4.174 1.878-2.365 1.878-4.8 4.8-6.817 8.278v0c-4.383 7.583-4.8 14.122-2.504 15.443 1.183 0.696 3.13 0.070 5.287-1.6 2.365-1.878 4.8-4.8 6.817-8.278s3.339-7.026 3.757-10.017c0.348-2.783-0.070-4.73-1.252-5.426-0.348-0.139-0.696-0.278-1.113-0.278z"></path>
<path fill="#80deea" style="fill: var(--color26, #80deea)" d="M22.261 30.33c-3.478 0-8.487-4.243-12.243-10.852-4.522-7.791-5.426-15.374-2.017-17.322v0c3.409-1.948 9.53 2.574 14.052 10.365 2.087 3.617 3.478 7.374 3.896 10.574 0.487 3.409-0.209 5.774-1.948 6.817-0.557 0.278-1.113 0.417-1.739 0.417zM8.696 3.339c-2.296 1.322-1.878 7.861 2.504 15.443s9.809 11.2 12.104 9.878c1.183-0.696 1.6-2.643 1.252-5.426-0.417-2.991-1.739-6.539-3.757-10.017-4.383-7.583-9.809-11.2-12.104-9.878v0z"></path>
<path fill="#80deea" style="fill: var(--color26, #80deea)" d="M18.783 16c0 1.537-1.246 2.783-2.783 2.783s-2.783-1.246-2.783-2.783c0-1.537 1.246-2.783 2.783-2.783s2.783 1.246 2.783 2.783z"></path>
</symbol>
<symbol id="icon-react-router" viewBox="0 0 32 32">
<path fill="#000" style="fill: var(--color1, #000)" d="M9.758 18.823c1.602 0 2.901-1.299 2.901-2.901s-1.299-2.901-2.901-2.901c-1.602 0-2.901 1.299-2.901 2.901s1.299 2.901 2.901 2.901zM2.901 24.626c1.602 0 2.901-1.299 2.901-2.901s-1.299-2.901-2.901-2.901c-1.602 0-2.901 1.299-2.901 2.901s1.299 2.901 2.901 2.901zM29.099 24.626c1.602 0 2.901-1.299 2.901-2.901s-1.299-2.901-2.901-2.901c-1.602 0-2.901 1.299-2.901 2.901s1.299 2.901 2.901 2.901z"></path>
<path fill="#d0021b" style="fill: var(--color2, #d0021b)" d="M19.571 16.045c-0.093-0.969-0.14-1.776-0.883-2.343-0.94-0.718-2.006-0.252-3.318-0.726-1.289-0.312-2.246-1.457-2.246-2.821 0-1.604 1.322-2.905 2.953-2.905 1.208 0 2.247 0.713 2.704 1.735 0.7 1.33 0.245 2.683 1.125 3.365 1.042 0.807 2.446 0.216 4.013 0.981 0.503 0.231 0.93 0.598 1.23 1.053s0.475 0.997 0.475 1.58c0 1.364-0.956 2.509-2.246 2.821-1.312 0.474-2.377 0.008-3.318 0.726-1.057 0.807-0.491 2.158-1.353 3.585-0.489 0.94-1.483 1.583-2.63 1.583-1.631 0-2.953-1.301-2.953-2.905 0-1.165 0.698-2.171 1.705-2.633 1.567-0.765 2.971-0.174 4.013-0.981 0.601-0.466 0.728-1.184 0.728-2.116z"></path>
</symbol>
<symbol id="icon-redux" viewBox="0 0 32 32">
<path fill="#7e57c2" style="fill: var(--color27, #7e57c2)" d="M15.237 0.747c-5.046 0-9.152 5.544-9.152 12.359 0 3.687 1.206 6.993 3.11 9.255-0.037 0.162-0.059 0.329-0.059 0.503 0 1.264 1.024 2.288 2.288 2.288s2.288-1.024 2.288-2.288-1.024-2.288-2.288-2.288c-0.24 0-0.467 0.047-0.684 0.116-1.447-1.846-2.366-4.558-2.366-7.586 0-5.553 3.079-10.071 6.864-10.071 2.926 0 5.423 2.705 6.409 6.496 0.856 0.264 1.706 0.596 2.54 0.998-0.881-5.581-4.557-9.782-8.949-9.782z"></path>
<path fill="#7e57c2" style="fill: var(--color27, #7e57c2)" d="M24.776 13.014c-3.010-1.824-6.386-2.625-9.29-2.257-0.419-0.519-1.054-0.858-1.773-0.858-1.264 0-2.288 1.024-2.288 2.288s1.024 2.288 2.288 2.288c0.97 0 1.794-0.606 2.127-1.458 2.378-0.289 5.195 0.405 7.751 1.955 4.883 2.96 7.375 8.060 5.553 11.372-0.631 1.147-1.743 1.962-3.217 2.357-1.743 0.466-3.819 0.3-5.893-0.403-0.64 0.589-1.334 1.142-2.078 1.653 1.946 0.852 3.963 1.3 5.849 1.3 0.946 0 1.859-0.112 2.714-0.341 2.090-0.559 3.692-1.757 4.63-3.464 2.405-4.371-0.455-10.845-6.373-14.431z"></path>
<path fill="#7e57c2" style="fill: var(--color27, #7e57c2)" d="M24.389 19.807c0-1.26-1.024-2.282-2.288-2.282s-2.288 1.022-2.288 2.282c0 0.51 0.174 0.977 0.458 1.357-0.975 2.137-2.855 4.246-5.386 5.779-2.948 1.788-6.242 2.442-8.812 1.756-1.473-0.395-2.586-1.21-3.217-2.357-1.298-2.36-0.397-5.625 1.99-8.38-0.246-0.872-0.429-1.785-0.538-2.726-3.867 3.658-5.422 8.635-3.456 12.209 0.938 1.707 2.54 2.905 4.63 3.464 0.855 0.229 1.768 0.341 2.714 0.341 2.552 0 5.344-0.814 7.875-2.349 2.925-1.773 5.097-4.253 6.26-6.835 1.154-0.117 2.058-1.078 2.058-2.259z"></path>
</symbol>
<symbol id="icon-sass" viewBox="0 0 32 32">
<path fill="#f06292" style="fill: var(--color28, #f06292)" d="M16.034-0.008c8.837 0 16 7.163 16 16s-7.163 16-16 16c-8.836 0-16-7.163-16-16s7.164-16 16-16v0z"></path>
<path fill="#fff" style="fill: var(--color4, #fff)" d="M26.070 6.84c-0.725-2.842-5.436-3.776-9.895-2.192-2.654 0.943-5.527 2.423-7.593 4.355-2.456 2.298-2.848 4.297-2.686 5.132 0.569 2.948 4.609 4.875 6.269 6.305v0.009c-0.49 0.241-4.073 2.055-4.912 3.909-0.885 1.956 0.141 3.36 0.82 3.549 2.104 0.585 4.263-0.467 5.424-2.198 1.12-1.671 1.027-3.827 0.54-4.901 0.671-0.177 1.454-0.257 2.448-0.14 2.807 0.328 3.357 2.080 3.252 2.814s-0.694 1.137-0.891 1.259c-0.197 0.122-0.257 0.164-0.241 0.254 0.024 0.131 0.115 0.127 0.283 0.099 0.231-0.039 1.474-0.596 1.527-1.95 0.067-1.719-1.579-3.641-4.496-3.592-1.201 0.021-1.956 0.135-2.502 0.338-0.040-0.046-0.082-0.091-0.123-0.137-1.803-1.924-5.136-3.285-4.995-5.871 0.051-0.94 0.378-3.416 6.405-6.419 4.937-2.46 8.889-1.783 9.572-0.283 0.976 2.144-2.112 6.127-7.239 6.702-1.954 0.219-2.982-0.538-3.238-0.82-0.269-0.297-0.309-0.31-0.41-0.254-0.164 0.091-0.060 0.353 0 0.509 0.153 0.398 0.782 1.105 1.852 1.457 0.942 0.309 3.236 0.479 6.009-0.594 3.106-1.203 5.532-4.546 4.819-7.339zM12.854 21.322c0.232 0.861 0.207 1.664-0.033 2.391-0.026 0.081-0.056 0.16-0.088 0.24s-0.067 0.157-0.103 0.234c-0.185 0.385-0.435 0.745-0.739 1.077-0.93 1.014-2.229 1.397-2.785 1.074-0.601-0.349-0.3-1.778 0.778-2.918 1.159-1.226 2.828-2.014 2.828-2.014l-0.002-0.005c0.048-0.026 0.097-0.053 0.146-0.080z"></path>
</symbol>
<symbol id="icon-typeScript" viewBox="0 0 32 32">
<path fill="#1976d2" style="fill: var(--color29, #1976d2)" d="M0 0h32v32h-32v-32z"></path>
<path fill="#fff" style="fill: var(--color4, #fff)" d="M19.102 14.222h-11.789v2.901h4.228v13.099h3.35v-13.099h4.211z"></path>
<path fill="#fff" style="fill: var(--color4, #fff)" d="M29.506 17.852c0 0-1.588-1.060-3.384-1.060s-2.442 0.853-2.442 1.765c0 2.354 6.561 2.118 6.561 6.855 0 7.297-10.004 4.060-10.004 4.060v-3.5c0 0 1.913 1.442 4.207 1.442s2.207-1.5 2.207-1.707c0-2.177-6.502-2.177-6.502-7.003 0-6.561 9.474-3.972 9.474-3.972l-0.117 3.119z"></path>
</symbol>
</defs>
</svg>
