<svg aria-hidden="true" style="position: absolute; width: 0; height: 0; overflow: hidden;" version="1.1" xmlns="http://www.w3.org/2000/svg" xmlns:xlink="http://www.w3.org/1999/xlink">
<defs>
<symbol id="icon-api" viewBox="0 0 32 32">
<path fill="#ffffff" d="M13.783-0c-0.66 0-1.239 0.46-1.37 1.109l-0.304 1.543c-2.157 0.626-4.125 1.758-5.739 3.304l-1.478-0.5c-0.627-0.21-1.322 0.059-1.652 0.63l-2.196 3.826c-0.33 0.573-0.213 1.304 0.283 1.739l1.174 1.043c-0.272 1.105-0.413 2.209-0.413 3.304 0 1.094 0.14 2.198 0.413 3.304l-1.174 1.044c-0.496 0.436-0.612 1.166-0.283 1.739l2.196 3.826c0.33 0.573 1.025 0.844 1.652 0.63l1.478-0.5c1.615 1.548 3.583 2.678 5.739 3.304l0.304 1.544c0.132 0.646 0.71 1.109 1.37 1.109h4.435c0.661 0 1.239-0.46 1.37-1.109l0.304-1.544c2.157-0.625 4.125-1.756 5.739-3.304l1.478 0.5c0.628 0.213 1.3-0.059 1.63-0.63l2.217-3.826c0.33-0.573 0.214-1.304-0.283-1.739l-1.174-1.044c0.273-1.105 0.413-2.209 0.413-3.304s-0.14-2.2-0.413-3.304l1.174-1.043c0.496-0.436 0.613-1.167 0.283-1.739l-2.196-3.826c-0.331-0.574-1.028-0.843-1.652-0.63l-1.478 0.5c-1.615-1.547-3.583-2.678-5.739-3.304l-0.304-1.544c-0.132-0.648-0.709-1.109-1.37-1.109h-4.435zM10.087 11.13c0.305 0 0.584 0.208 0.674 0.5l2.435 7.913c0.020 0.066 0.022 0.148 0.022 0.217v0.413c0 0.385-0.312 0.696-0.696 0.696s-0.696-0.311-0.696-0.696v-0.326l-0.326-1.065h-2.826l-0.326 1.065v0.326c0 0.385-0.312 0.696-0.696 0.696s-0.696-0.311-0.696-0.696v-0.413c0-0.070 0.002-0.151 0.022-0.217l2.435-7.913c0.090-0.292 0.368-0.5 0.674-0.5zM15.304 11.13h2.783c1.151 0 2.087 0.936 2.087 2.087v2.087c0 1.151-0.936 2.087-2.087 2.087h-2.087v2.783c0 0.385-0.312 0.696-0.696 0.696s-0.696-0.311-0.696-0.696v-8.348c0-0.384 0.312-0.696 0.696-0.696zM22.261 11.13h1.391c0.385 0 0.696 0.312 0.696 0.696s-0.311 0.696-0.696 0.696v6.957c0.385 0 0.696 0.311 0.696 0.696s-0.311 0.696-0.696 0.696h-1.391c-0.385 0-0.696-0.311-0.696-0.696s0.311-0.696 0.696-0.696v-6.957c-0.385 0-0.696-0.312-0.696-0.696s0.311-0.696 0.696-0.696zM16 12.522v3.478h2.087c0.384 0 0.696-0.312 0.696-0.696v-2.087c0-0.383-0.312-0.696-0.696-0.696h-2.087zM10.087 14.196l-0.978 3.196h1.957l-0.978-3.196z"></path>
</symbol>
<symbol id="icon-arrow-left" viewBox="0 0 32 32">
<path d="M20.286 0l-16 16 16 16 4.571-4.571-11.429-11.429 11.429-11.429z"></path>
</symbol>
<symbol id="icon-circle" viewBox="0 0 32 32">
<path d="M32 16c0 8.837-7.163 16-16 16s-16-7.163-16-16c0-8.837 7.163-16 16-16s16 7.163 16 16z"></path>
</symbol>
<symbol id="icon-close" viewBox="0 0 16 16">
<rect height="4" width="4"/><rect height="4" width="4" x="12"/><rect height="4" width="4" x="6" y="6"/><rect height="4" width="4" y="12"/><rect height="4" width="4" x="12" y="12"/>
</symbol>
<symbol id="icon-close-overlay" viewBox="0 0 32 32">
<path d="M32 3.638l-3.638-3.609-12.362 12.362-12.391-12.362-3.609 3.609 12.362 12.391-12.334 12.334 3.609 3.638 12.362-12.362 12.362 12.391 3.638-3.638-12.391-12.362 12.391-12.391z"></path>
</symbol>
<symbol id="icon-css3" viewBox="0 0 32 32">
<path fill="#1572b6" style="fill: var(--color5, #1572b6)" d="M4.459 28.801l-2.567-28.801h28.215l-2.57 28.797-11.554 3.203-11.523-3.199z"></path>
<path fill="#33a9dc" style="fill: var(--color6, #33a9dc)" d="M16 29.552l9.337-2.589 2.197-24.608h-11.534v27.197z"></path>
<path fill="#fff" style="fill: var(--color4, #fff)" d="M16 12.79h4.674l0.322-3.617h-4.997v-3.533h8.857l-0.085 0.947-0.867 9.735h-7.905v-3.533z"></path>
<path fill="#ebebeb" style="fill: var(--color7, #ebebeb)" d="M16.022 21.963l-0.016 0.005-3.934-1.063-0.251-2.817h-3.546l0.495 5.546 7.235 2.009 0.017-0.005v-3.675z"></path>
<path fill="#fff" style="fill: var(--color4, #fff)" d="M20.374 16.173l-0.425 4.73-3.939 1.063v3.675l7.241-2.007 0.054-0.597 0.614-6.865h-3.544z"></path>
<path fill="#ebebeb" style="fill: var(--color7, #ebebeb)" d="M16.013 5.64v3.533h-8.533l-0.071-0.794-0.161-1.791-0.085-0.947h8.849z"></path>
<path fill="#ebebeb" style="fill: var(--color7, #ebebeb)" d="M16 12.79v3.533h-3.885l-0.071-0.794-0.16-1.791-0.085-0.947h4.2z"></path>
</symbol>
<symbol id="icon-css3-mono" viewBox="0 0 32 32">
<path d="M21.489 10.68l-10.978-0.003 0.177 2.184 8.434 0.001-0.213 2.262h-5.531l0.2 2.143h5.149l-0.305 2.935-2.424 0.67-2.462-0.675-0.157-1.758h-2.174l0.241 3.211 4.552 1.418 4.475-1.274 1.014-11.115zM7.254 7.004h17.492l-1.591 17.961-7.174 2.030-7.134-2.031z"></path>
</symbol>
<symbol id="icon-figma" viewBox="0 0 32 32">
<path fill="#e64a19" style="fill: var(--color12, #e64a19)" d="M17.524 10.667h-6.095c-2.946 0-5.333-2.388-5.333-5.333v0c0-2.946 2.388-5.333 5.333-5.333h6.095v10.667z"></path>
<path fill="#7c4dff" style="fill: var(--color13, #7c4dff)" d="M16.762 21.333h-5.333c-2.946 0-5.333-2.388-5.333-5.333v0c0-2.946 2.388-5.333 5.333-5.333h5.333v10.667z"></path>
<path fill="#66bb6a" style="fill: var(--color14, #66bb6a)" d="M11.429 32v0c-2.946 0-5.333-2.388-5.333-5.333v0c0-2.946 2.388-5.333 5.333-5.333h5.333v5.333c0 2.946-2.388 5.333-5.333 5.333z"></path>
<path fill="#ff7043" style="fill: var(--color15, #ff7043)" d="M22.095 10.667h-5.333v-10.667h5.333c2.946 0 5.333 2.388 5.333 5.333v0c0 2.946-2.388 5.333-5.333 5.333z"></path>
<path fill="#29b6f6" style="fill: var(--color16, #29b6f6)" d="M27.429 16c0 2.946-2.388 5.333-5.333 5.333s-5.333-2.388-5.333-5.333c0-2.946 2.388-5.333 5.333-5.333s5.333 2.388 5.333 5.333z"></path>
</symbol>
<symbol id="icon-git" viewBox="0 0 32 32">
<path fill="#f4511e" style="fill: var(--color17, #f4511e)" d="M31.326 14.4l-13.726-13.726c-0.421-0.421-1.011-0.674-1.6-0.674 0 0 0 0 0 0-0.589 0-1.179 0.253-1.6 0.674l-2.947 2.947 3.453 3.453c0.337-0.168 0.674-0.253 1.095-0.253 1.432 0 2.526 1.095 2.526 2.526 0 0.421-0.084 0.758-0.253 1.095l3.368 3.368c0.337-0.168 0.674-0.253 1.095-0.253 1.432 0 2.526 1.095 2.526 2.526s-1.095 2.526-2.526 2.526c-1.432 0-2.526-1.095-2.526-2.526 0-0.421 0.084-0.758 0.253-1.095l-3.368-3.368c-0.084 0-0.168 0.084-0.253 0.084v8.758c1.011 0.337 1.684 1.263 1.684 2.358 0 1.432-1.095 2.526-2.526 2.526s-2.526-1.095-2.526-2.526c0-1.095 0.674-2.021 1.684-2.358v-8.842c-1.011-0.337-1.684-1.263-1.684-2.358 0-0.421 0.084-0.758 0.253-1.095l-3.453-3.453-9.6 9.684c-0.421 0.421-0.674 1.011-0.674 1.6s0.253 1.179 0.674 1.6l13.726 13.726c0 0 0 0 0 0 0.421 0.421 1.011 0.674 1.6 0.674s1.179-0.253 1.6-0.674l13.726-13.726c0.421-0.421 0.674-1.011 0.674-1.6s-0.253-1.179-0.674-1.6z"></path>
</symbol>
<symbol id="icon-git-mono" viewBox="0 0 32 32">
<path d="M27.495 14.8l-10.295-10.295c-0.316-0.316-0.758-0.505-1.2-0.505 0 0 0 0 0 0-0.442 0-0.884 0.189-1.2 0.505l-2.21 2.21 2.59 2.59c0.253-0.126 0.505-0.19 0.821-0.19 1.074 0 1.895 0.821 1.895 1.895 0 0.316-0.063 0.568-0.189 0.821l2.526 2.526c0.253-0.126 0.505-0.19 0.821-0.19 1.074 0 1.895 0.821 1.895 1.895s-0.821 1.895-1.895 1.895c-1.074 0-1.895-0.821-1.895-1.895 0-0.316 0.063-0.568 0.189-0.821l-2.526-2.526c-0.063 0-0.126 0.063-0.189 0.063v6.568c0.758 0.253 1.263 0.947 1.263 1.768 0 1.074-0.821 1.895-1.895 1.895s-1.895-0.821-1.895-1.895c0-0.821 0.505-1.516 1.263-1.768v-6.632c-0.758-0.253-1.263-0.947-1.263-1.768 0-0.316 0.063-0.568 0.19-0.821l-2.59-2.59-7.2 7.263c-0.316 0.316-0.505 0.758-0.505 1.2s0.189 0.884 0.505 1.2l10.295 10.295c0 0 0 0 0 0 0.316 0.316 0.758 0.505 1.2 0.505s0.884-0.189 1.2-0.505l10.295-10.295c0.316-0.316 0.505-0.758 0.505-1.2s-0.189-0.884-0.505-1.2z"></path>
</symbol>
<symbol id="icon-graphql" viewBox="0 0 32 32">
<path fill="#ff4081" style="fill: var(--color18, #ff4081)" d="M16 30.692l-12.444-7.354v-14.677l12.444-7.354 12.444 7.354v14.677l-12.444 7.354zM4.978 22.528l11.022 6.513 11.022-6.513v-13.056l-11.022-6.513-11.022 6.513v13.056z"></path>
<path fill="#ff4081" style="fill: var(--color18, #ff4081)" d="M18.489 2.489c0 1.375-1.114 2.489-2.489 2.489s-2.489-1.114-2.489-2.489c0-1.375 1.114-2.489 2.489-2.489s2.489 1.114 2.489 2.489z"></path>
<path fill="#ff4081" style="fill: var(--color18, #ff4081)" d="M18.489 29.511c0 1.375-1.114 2.489-2.489 2.489s-2.489-1.114-2.489-2.489c0-1.375 1.114-2.489 2.489-2.489s2.489 1.114 2.489 2.489z"></path>
<path fill="#ff4081" style="fill: var(--color18, #ff4081)" d="M7.111 22.4c0 1.375-1.114 2.489-2.489 2.489s-2.489-1.114-2.489-2.489c0-1.375 1.114-2.489 2.489-2.489s2.489 1.114 2.489 2.489z"></path>
<path fill="#ff4081" style="fill: var(--color18, #ff4081)" d="M29.867 22.4c0 1.375-1.114 2.489-2.489 2.489s-2.489-1.114-2.489-2.489c0-1.375 1.114-2.489 2.489-2.489s2.489 1.114 2.489 2.489z"></path>
<path fill="#ff4081" style="fill: var(--color18, #ff4081)" d="M7.111 9.6c0 1.375-1.114 2.489-2.489 2.489s-2.489-1.114-2.489-2.489c0-1.375 1.114-2.489 2.489-2.489s2.489 1.114 2.489 2.489z"></path>
<path fill="#ff4081" style="fill: var(--color18, #ff4081)" d="M29.867 9.6c0 1.375-1.114 2.489-2.489 2.489s-2.489-1.114-2.489-2.489c0-1.375 1.114-2.489 2.489-2.489s2.489 1.114 2.489 2.489z"></path>
<path fill="#ff4081" style="fill: var(--color18, #ff4081)" d="M28.956 23.467h-25.913l12.956-22.771 12.956 22.771zM5.49 22.044h21.020l-10.51-18.473-10.51 18.473z"></path>
</symbol>
<symbol id="icon-html5" viewBox="0 0 32 32">
<path fill="#e65100" style="fill: var(--color19, #e65100)" d="M30.316 0h-28.632l2.526 28.632 11.79 3.368 11.79-3.368 2.526-28.632z"></path>
<path fill="#ff6d00" style="fill: var(--color20, #ff6d00)" d="M16 2.526v26.863l9.432-2.695 2.105-24.168z"></path>
<path fill="#fff" style="fill: var(--color4, #fff)" d="M16 16.842v-3.368h7.242l-0.589 9.684-6.653 2.189v-3.537l3.453-1.179 0.253-3.789h-3.705zM23.495 10.105l0.253-3.368h-7.747v3.368h7.495z"></path>
<path fill="#eee" style="fill: var(--color21, #eee)" d="M16 21.811v3.537l-6.653-2.189-0.337-4.632h3.368l0.168 2.105 3.453 1.179zM11.874 10.105h4.126v-3.368h-7.663l0.589 10.105h7.074v-3.368h-3.874l-0.253-3.368z"></path>
</symbol>
<symbol id="icon-html5-mono" viewBox="0 0 32 32">
<path d="M13.122 15.133l-0.192-2.255 8.345 0.003 0.191-2.175-10.931-0.003 0.579 6.645h7.571l-0.27 2.842-2.414 0.667-2.452-0.672-0.156-1.751h-2.165l0.274 3.46 4.498 1.203 4.463-1.197 0.617-6.767h-7.957zM7.289 7.045h17.422l-1.584 17.889-7.145 2.022-7.105-2.022z"></path>
</symbol>
<symbol id="icon-javaScript" viewBox="0 0 32 32">
<path fill="#ffd600" style="fill: var(--color22, #ffd600)" d="M0 32v-32h32v32h-32z"></path>
<path fill="#000001" style="fill: var(--color23, #000001)" d="M20.923 23.953c0.615 0.999 1.284 1.956 2.7 1.956 1.189 0 1.813-0.591 1.813-1.409 0-0.979-0.645-1.326-1.954-1.896l-0.717-0.306c-2.070-0.878-3.447-1.979-3.447-4.303 0-2.142 1.64-3.772 4.203-3.772 1.825 0 3.136 0.632 4.082 2.287l-2.235 1.428c-0.492-0.878-1.023-1.224-1.847-1.224-0.841 0-1.373 0.531-1.373 1.224 0 0.857 0.533 1.204 1.764 1.734l0.717 0.306c2.44 1.039 3.816 2.1 3.816 4.486 0 2.571-2.030 3.98-4.756 3.98-2.666 0-4.18-1.338-5.022-2.994l2.256-1.498zM10.624 24.026c0.45 0.805 1.133 1.425 2.116 1.425 0.94 0 1.482-0.372 1.482-1.816v-9.412h2.963v9.868c0 2.993-1.736 4.355-4.271 4.355-2.291 0-3.944-1.552-4.618-2.994l2.328-1.425z"></path>
</symbol>
<symbol id="icon-javaScript-mono" viewBox="0 0 32 32">
<path d="M19.371 21.975c0.529 0.859 1.103 1.681 2.32 1.681 1.022 0 1.558-0.508 1.558-1.211 0-0.841-0.555-1.14-1.679-1.629l-0.616-0.263c-1.779-0.755-2.962-1.7-2.962-3.698 0-1.841 1.409-3.242 3.612-3.242 1.568 0 2.695 0.543 3.508 1.966l-1.92 1.228c-0.422-0.755-0.879-1.052-1.587-1.052-0.723 0-1.18 0.456-1.18 1.052 0 0.736 0.458 1.034 1.516 1.49l0.616 0.263c2.097 0.893 3.279 1.805 3.279 3.855 0 2.209-1.745 3.42-4.087 3.42-2.291 0-3.592-1.15-4.316-2.573l1.939-1.287zM10.521 22.038c0.387 0.692 0.974 1.224 1.819 1.224 0.808 0 1.273-0.319 1.273-1.561v-8.089h2.546v8.48c0 2.572-1.492 3.742-3.671 3.742-1.969 0-3.389-1.334-3.968-2.573l2.001-1.224z"></path>
</symbol>
<symbol id="icon-logo" viewBox="0 0 781.04 781.04">
<path d="M390.62 490.49c-92.85,0 -180.84,-2.68 -259.02,-57.4 -78.95,-55.28 -129.69,-152.69 -130.78,-332.72l-0.61 -100.36 360.45 -0.01 0 199.95 -152.08 0c7.89,37.08 20.72,58.53 36.96,69.9 28.18,19.73 84.49,20.7 145.08,20.7 92.86,0 180.85,2.68 259.03,57.41 78.95,55.27 129.69,152.68 130.78,332.71l0.61 100.37 -360.45 0 0 -199.95 152.08 0c-7.89,-37.08 -20.72,-58.53 -36.96,-69.9 -28.18,-19.73 -84.49,-20.7 -145.09,-20.7zm340.85 -150.62c30.42,-56.9 48.11,-134.01 48.75,-239.5l0.6 -100.37 -360.44 0 0 199.95 152.07 0c-3.88,18.26 -8.97,32.73 -15.07,44.08 43.47,9.79 85.62,26.52 126.24,54.95 17.09,11.97 33.09,25.51 47.85,40.89zm-682.11 101.3c-30.42,56.9 -48.11,134.01 -48.75,239.5l-0.61 100.36 360.44 0.01 0 -199.95 -152.07 0c3.88,-18.27 8.97,-32.74 15.07,-44.08 -43.47,-9.79 -85.62,-26.52 -126.23,-54.96 -17.1,-11.97 -33.1,-25.51 -47.85,-40.88z"/>
</symbol>
<symbol id="icon-menu" viewBox="0 0 16 16">
<rect height="4" width="4"/><rect height="4" width="4" x="6"/><rect height="4" width="4" x="12"/><rect height="4" width="4" y="6"/><rect height="4" width="4" x="6" y="6"/><rect height="4" width="4" x="12" y="6"/><rect height="4" width="4" y="12"/><rect height="4" width="4" x="6" y="12"/><rect height="4" width="4" x="12" y="12"/>
</symbol>
<symbol id="icon-mongodb" viewBox="0 0 32 32">
<path fill="#13aa52" style="fill: var(--color3, #13aa52)" d="M32 16c0 8.837-7.163 16-16 16s-16-7.163-16-16c0-8.837 7.163-16 16-16s16 7.163 16 16z"></path>
<path fill="#fff" style="fill: var(--color4, #fff)" d="M20.277 14.045c-1.011-4.46-3.399-5.927-3.656-6.487-0.281-0.395-0.566-1.098-0.566-1.098-0.005-0.012-0.012-0.033-0.021-0.053-0.029 0.395-0.044 0.548-0.418 0.947-0.579 0.452-3.548 2.944-3.79 8.012-0.225 4.726 3.414 7.543 3.906 7.902l0.056 0.040v-0.003c0.003 0.024 0.156 1.125 0.264 2.292h0.386c0.106-0.953 0.248-1.788 0.436-2.607l-0.029 0.152 0.031-0.020c0.234-0.168 0.439-0.337 0.632-0.518l-0.004 0.004 0.023-0.020c1.046-0.967 2.927-3.202 2.909-6.767-0.004-0.63-0.061-1.243-0.167-1.839l0.010 0.066zM16.011 20.598s0-6.629 0.219-6.628c0.171 0 0.392 8.55 0.392 8.55-0.304-0.037-0.61-1.407-0.61-1.923z"></path>
</symbol>
<symbol id="icon-mongodb-mono" viewBox="0 0 32 32">
<path d="M15.863 21.508s0-7.943 0.264-7.942c0.204 0 0.469 10.245 0.469 10.245-0.365-0.043-0.733-1.686-0.733-2.304zM20.974 13.658c-0.705-3.079-2.248-5.726-4.376-7.769l-0.005-0.005c-0.259-0.396-0.496-0.849-0.686-1.328l-0.018-0.052c0.001 0.015 0.001 0.034 0.001 0.052 0 0.433-0.194 0.82-0.5 1.080l-0.002 0.002c-2.74 2.326-4.483 5.753-4.54 9.588v0.010c-0.001 0.048-0.001 0.104-0.001 0.159 0 3.8 1.828 7.173 4.653 9.287l0.030 0.021 0.067 0.048q0.185 1.368 0.316 2.741h0.461c0.127-1.143 0.299-2.143 0.524-3.125l-0.035 0.183c0.304-0.211 0.569-0.429 0.816-0.666l-0.002 0.002c2.147-1.991 3.487-4.827 3.487-7.976 0-0.047 0-0.093-0.001-0.14v0.007c-0.002-0.752-0.071-1.487-0.2-2.201l0.012 0.076z"></path>
</symbol>
<symbol id="icon-mui" viewBox="0 0 32 32">
<path fill="#29b6f6" style="fill: var(--color16, #29b6f6)" d="M0 2.783l4.174 2.783v13.913l-4.174-2.783z"></path>
<path fill="#0288d1" style="fill: var(--color24, #0288d1)" d="M32 13.217l-4.174 2.783v9.043l4.174-2.783z"></path>
<path fill="#0288d1" style="fill: var(--color24, #0288d1)" d="M32 3.478l-4.174 2.783v4.87l4.174-2.783z"></path>
<path fill="#0288d1" style="fill: var(--color24, #0288d1)" d="M23.652 2.783l-4.174 2.783v13.913l4.174-2.783z"></path>
<path fill="#29b6f6" style="fill: var(--color16, #29b6f6)" d="M0 7.652l11.826 7.652v-4.87l-11.826-7.652z"></path>
<path fill="#0288d1" style="fill: var(--color24, #0288d1)" d="M23.652 7.652l-11.826 7.652v-4.87l11.826-7.652z"></path>
<path fill="#0288d1" style="fill: var(--color24, #0288d1)" d="M23.652 17.391l-11.826 7.652v-4.87l11.826-7.652z"></path>
<path fill="#0288d1" style="fill: var(--color24, #0288d1)" d="M32 22.956l-11.826 7.652v-4.87l11.826-7.652z"></path>
<path fill="#29b6f6" style="fill: var(--color16, #29b6f6)" d="M20.174 25.576l-8.348-5.402v4.87l8.348 5.402z"></path>
</symbol>
<symbol id="icon-node.js" viewBox="0 0 32 32">
<path fill="#21a366" style="fill: var(--color25, #21a366)" d="M16.005 32c-0.429 0-0.854-0.112-1.23-0.329l-3.914-2.318c-0.585-0.327-0.3-0.443-0.107-0.509 0.78-0.273 0.937-0.335 1.77-0.808 0.087-0.050 0.202-0.032 0.291 0.021l3.007 1.785c0.108 0.059 0.263 0.059 0.363 0l11.726-6.768c0.108-0.062 0.179-0.188 0.179-0.317v-13.53c0-0.135-0.070-0.255-0.182-0.323l-11.72-6.763c-0.108-0.064-0.252-0.064-0.361 0l-11.719 6.763c-0.114 0.064-0.186 0.19-0.186 0.32v13.531c0 0.129 0.070 0.253 0.182 0.314l3.211 1.855c1.743 0.872 2.809-0.155 2.809-1.188v-13.354c0-0.19 0.149-0.338 0.341-0.338h1.485c0.185 0 0.338 0.146 0.338 0.338v13.361c0 2.325-1.268 3.66-3.472 3.66-0.678 0-1.212 0-2.703-0.734l-3.076-1.773c-0.76-0.441-1.23-1.263-1.23-2.14v-13.531c0-0.881 0.47-1.702 1.23-2.137l11.738-6.771c0.742-0.42 1.729-0.42 2.466 0l11.723 6.774c0.756 0.437 1.229 1.256 1.229 2.137v13.531c0 0.878-0.473 1.696-1.23 2.137l-11.723 6.771c-0.376 0.217-0.802 0.329-1.235 0.329z"></path>
<path fill="#21a366" style="fill: var(--color25, #21a366)" d="M19.627 22.676c-5.13 0-6.206-2.355-6.206-4.33 0-0.188 0.152-0.338 0.34-0.338h1.515c0.167 0 0.309 0.122 0.335 0.287 0.229 1.543 0.91 2.322 4.012 2.322 2.471 0 3.522-0.558 3.522-1.869 0-0.754-0.3-1.315-4.138-1.69-3.211-0.317-5.195-1.024-5.195-3.592 0-2.366 1.996-3.775 5.339-3.775 3.754 0 5.615 1.303 5.85 4.103 0.009 0.097-0.026 0.19-0.091 0.261-0.064 0.067-0.155 0.108-0.249 0.108h-1.523c-0.158 0-0.297-0.111-0.329-0.264-0.367-1.623-1.253-2.142-3.663-2.142-2.697 0-3.011 0.939-3.011 1.643 0 0.854 0.37 1.103 4.009 1.585 3.604 0.478 5.316 1.153 5.316 3.686 0 2.553-2.131 4.018-5.847 4.018z"></path>
</symbol>
<symbol id="icon-node.js-mono" viewBox="0 0 32 32">
<path d="M16.004 28c-0.322 0-0.64-0.084-0.922-0.247l-2.936-1.738c-0.439-0.245-0.225-0.332-0.080-0.382 0.585-0.205 0.703-0.251 1.327-0.606 0.066-0.038 0.151-0.024 0.218 0.016l2.256 1.338c0.081 0.044 0.197 0.044 0.272 0l8.794-5.076c0.081-0.047 0.134-0.141 0.134-0.238v-10.148c0-0.101-0.053-0.192-0.136-0.242l-8.79-5.072c-0.081-0.048-0.189-0.048-0.271 0l-8.789 5.072c-0.085 0.048-0.139 0.143-0.139 0.24v10.148c0 0.097 0.053 0.189 0.137 0.235l2.408 1.391c1.308 0.654 2.107-0.116 2.107-0.891v-10.015c0-0.143 0.112-0.253 0.255-0.253h1.114c0.139 0 0.253 0.11 0.253 0.253v10.021c0 1.744-0.951 2.745-2.604 2.745-0.509 0-0.909 0-2.027-0.55l-2.307-1.329c-0.57-0.331-0.923-0.947-0.923-1.605v-10.148c0-0.661 0.352-1.277 0.922-1.603l8.804-5.079c0.557-0.315 1.296-0.315 1.849 0l8.792 5.081c0.567 0.328 0.922 0.942 0.922 1.603v10.148c0 0.658-0.355 1.272-0.922 1.603l-8.792 5.078c-0.282 0.163-0.601 0.247-0.927 0.247z"></path>
<path d="M18.721 21.007c-3.848 0-4.654-1.766-4.654-3.248 0-0.141 0.114-0.253 0.255-0.253h1.136c0.125 0 0.231 0.091 0.251 0.215 0.171 1.157 0.682 1.741 3.009 1.741 1.853 0 2.642-0.419 2.642-1.402 0-0.566-0.225-0.986-3.104-1.268-2.408-0.238-3.896-0.768-3.896-2.694 0-1.774 1.497-2.831 4.004-2.831 2.816 0 4.211 0.978 4.387 3.077 0.007 0.073-0.020 0.143-0.068 0.196-0.048 0.050-0.116 0.081-0.187 0.081h-1.142c-0.119 0-0.222-0.083-0.247-0.198-0.275-1.217-0.94-1.607-2.747-1.607-2.023 0-2.258 0.704-2.258 1.232 0 0.64 0.277 0.827 3.007 1.189 2.703 0.359 3.987 0.865 3.987 2.765 0 1.915-1.598 3.014-4.385 3.014z"></path>
</symbol>
<symbol id="icon-react.js" viewBox="0 0 32 32">
<path fill="#80deea" style="fill: var(--color26, #80deea)" d="M16 22.956c-8.974 0-16-3.061-16-6.957s7.026-6.957 16-6.957c8.974 0 16 3.061 16 6.957s-7.026 6.957-16 6.957zM16 10.435c-8.765 0-14.609 2.852-14.609 5.565s5.843 5.565 14.609 5.565 14.609-2.852 14.609-5.565c0-2.713-5.843-5.565-14.609-5.565z"></path>
<path fill="#80deea" style="fill: var(--color26, #80deea)" d="M9.809 30.33c-0.696 0-1.252-0.139-1.809-0.487-3.409-1.948-2.504-9.53 1.948-17.322v0c2.087-3.617 4.661-6.678 7.165-8.626 2.713-2.087 5.148-2.713 6.817-1.739 1.739 0.974 2.365 3.409 1.948 6.817-0.417 3.2-1.809 6.957-3.896 10.574s-4.661 6.678-7.165 8.626c-1.809 1.391-3.548 2.157-5.009 2.157zM22.191 3.061c-1.113 0-2.574 0.626-4.174 1.878-2.365 1.878-4.8 4.8-6.817 8.278v0c-4.383 7.583-4.8 14.122-2.504 15.443 1.183 0.696 3.13 0.070 5.287-1.6 2.365-1.878 4.8-4.8 6.817-8.278s3.339-7.026 3.757-10.017c0.348-2.783-0.070-4.73-1.252-5.426-0.348-0.139-0.696-0.278-1.113-0.278z"></path>
<path fill="#80deea" style="fill: var(--color26, #80deea)" d="M22.261 30.33c-3.478 0-8.487-4.243-12.243-10.852-4.522-7.791-5.426-15.374-2.017-17.322v0c3.409-1.948 9.53 2.574 14.052 10.365 2.087 3.617 3.478 7.374 3.896 10.574 0.487 3.409-0.209 5.774-1.948 6.817-0.557 0.278-1.113 0.417-1.739 0.417zM8.696 3.339c-2.296 1.322-1.878 7.861 2.504 15.443s9.809 11.2 12.104 9.878c1.183-0.696 1.6-2.643 1.252-5.426-0.417-2.991-1.739-6.539-3.757-10.017-4.383-7.583-9.809-11.2-12.104-9.878v0z"></path>
<path fill="#80deea" style="fill: var(--color26, #80deea)" d="M18.783 16c0 1.537-1.246 2.783-2.783 2.783s-2.783-1.246-2.783-2.783c0-1.537 1.246-2.783 2.783-2.783s2.783 1.246 2.783 2.783z"></path>
</symbol>
<symbol id="icon-react.js-mono" viewBox="0 0 32 32">
<path d="M16 21.498c-7.093 0-12.646-2.419-12.646-5.498s5.553-5.498 12.646-5.498c7.093 0 12.646 2.419 12.646 5.498s-5.553 5.498-12.646 5.498zM16 11.601c-6.928 0-11.547 2.254-11.547 4.399s4.619 4.399 11.547 4.399 11.547-2.254 11.547-4.399c0-2.144-4.619-4.399-11.547-4.399z"></path>
<path d="M11.106 27.327c-0.55 0-0.99-0.11-1.43-0.385-2.694-1.54-1.979-7.533 1.54-13.691v0c1.65-2.859 3.684-5.278 5.663-6.818 2.144-1.65 4.069-2.144 5.388-1.375 1.375 0.77 1.869 2.694 1.54 5.388-0.33 2.529-1.43 5.498-3.079 8.358s-3.684 5.278-5.663 6.818c-1.43 1.1-2.804 1.704-3.959 1.704zM20.894 5.773c-0.88 0-2.034 0.495-3.299 1.485-1.869 1.485-3.794 3.794-5.388 6.543v0c-3.464 5.993-3.794 11.162-1.979 12.206 0.935 0.55 2.474 0.055 4.179-1.265 1.869-1.485 3.794-3.794 5.388-6.543s2.639-5.553 2.969-7.918c0.275-2.199-0.055-3.739-0.99-4.289-0.275-0.11-0.55-0.22-0.88-0.22z"></path>
<path d="M20.949 27.327c-2.749 0-6.708-3.354-9.677-8.578-3.574-6.158-4.289-12.151-1.595-13.691v0c2.694-1.54 7.533 2.034 11.107 8.193 1.65 2.859 2.749 5.828 3.079 8.358 0.385 2.694-0.165 4.564-1.54 5.388-0.44 0.22-0.88 0.33-1.375 0.33zM10.227 5.993c-1.814 1.045-1.485 6.213 1.979 12.206s7.753 8.852 9.567 7.808c0.935-0.55 1.265-2.089 0.99-4.289-0.33-2.364-1.375-5.168-2.969-7.918-3.464-5.993-7.753-8.852-9.567-7.808v0z"></path>
<path d="M18.199 16c0 1.215-0.985 2.199-2.199 2.199s-2.199-0.985-2.199-2.199c0-1.215 0.985-2.199 2.199-2.199s2.199 0.985 2.199 2.199z"></path>
</symbol>
<symbol id="icon-react-router" viewBox="0 0 32 32">
<path fill="#000" style="fill: var(--color1, #000)" d="M9.758 18.823c1.602 0 2.901-1.299 2.901-2.901s-1.299-2.901-2.901-2.901c-1.602 0-2.901 1.299-2.901 2.901s1.299 2.901 2.901 2.901zM2.901 24.626c1.602 0 2.901-1.299 2.901-2.901s-1.299-2.901-2.901-2.901c-1.602 0-2.901 1.299-2.901 2.901s1.299 2.901 2.901 2.901zM29.099 24.626c1.602 0 2.901-1.299 2.901-2.901s-1.299-2.901-2.901-2.901c-1.602 0-2.901 1.299-2.901 2.901s1.299 2.901 2.901 2.901z"></path>
<path fill="#d0021b" style="fill: var(--color2, #d0021b)" d="M19.571 16.045c-0.093-0.969-0.14-1.776-0.883-2.343-0.94-0.718-2.006-0.252-3.318-0.726-1.289-0.312-2.246-1.457-2.246-2.821 0-1.604 1.322-2.905 2.953-2.905 1.208 0 2.247 0.713 2.704 1.735 0.7 1.33 0.245 2.683 1.125 3.365 1.042 0.807 2.446 0.216 4.013 0.981 0.503 0.231 0.93 0.598 1.23 1.053s0.475 0.997 0.475 1.58c0 1.364-0.956 2.509-2.246 2.821-1.312 0.474-2.377 0.008-3.318 0.726-1.057 0.807-0.491 2.158-1.353 3.585-0.489 0.94-1.483 1.583-2.63 1.583-1.631 0-2.953-1.301-2.953-2.905 0-1.165 0.698-2.171 1.705-2.633 1.567-0.765 2.971-0.174 4.013-0.981 0.601-0.466 0.728-1.184 0.728-2.116z"></path>
</symbol>
<symbol id="icon-redux" viewBox="0 0 32 32">
<path fill="#7e57c2" style="fill: var(--color27, #7e57c2)" d="M15.237 0.747c-5.046 0-9.152 5.544-9.152 12.359 0 3.687 1.206 6.993 3.11 9.255-0.037 0.162-0.059 0.329-0.059 0.503 0 1.264 1.024 2.288 2.288 2.288s2.288-1.024 2.288-2.288-1.024-2.288-2.288-2.288c-0.24 0-0.467 0.047-0.684 0.116-1.447-1.846-2.366-4.558-2.366-7.586 0-5.553 3.079-10.071 6.864-10.071 2.926 0 5.423 2.705 6.409 6.496 0.856 0.264 1.706 0.596 2.54 0.998-0.881-5.581-4.557-9.782-8.949-9.782z"></path>
<path fill="#7e57c2" style="fill: var(--color27, #7e57c2)" d="M24.776 13.014c-3.010-1.824-6.386-2.625-9.29-2.257-0.419-0.519-1.054-0.858-1.773-0.858-1.264 0-2.288 1.024-2.288 2.288s1.024 2.288 2.288 2.288c0.97 0 1.794-0.606 2.127-1.458 2.378-0.289 5.195 0.405 7.751 1.955 4.883 2.96 7.375 8.060 5.553 11.372-0.631 1.147-1.743 1.962-3.217 2.357-1.743 0.466-3.819 0.3-5.893-0.403-0.64 0.589-1.334 1.142-2.078 1.653 1.946 0.852 3.963 1.3 5.849 1.3 0.946 0 1.859-0.112 2.714-0.341 2.090-0.559 3.692-1.757 4.63-3.464 2.405-4.371-0.455-10.845-6.373-14.431z"></path>
<path fill="#7e57c2" style="fill: var(--color27, #7e57c2)" d="M24.389 19.807c0-1.26-1.024-2.282-2.288-2.282s-2.288 1.022-2.288 2.282c0 0.51 0.174 0.977 0.458 1.357-0.975 2.137-2.855 4.246-5.386 5.779-2.948 1.788-6.242 2.442-8.812 1.756-1.473-0.395-2.586-1.21-3.217-2.357-1.298-2.36-0.397-5.625 1.99-8.38-0.246-0.872-0.429-1.785-0.538-2.726-3.867 3.658-5.422 8.635-3.456 12.209 0.938 1.707 2.54 2.905 4.63 3.464 0.855 0.229 1.768 0.341 2.714 0.341 2.552 0 5.344-0.814 7.875-2.349 2.925-1.773 5.097-4.253 6.26-6.835 1.154-0.117 2.058-1.078 2.058-2.259z"></path>
</symbol>
<symbol id="icon-redux-mono" viewBox="0 0 32 32">
<path d="M15.437 4.748c-3.723 0-6.751 4.090-6.751 9.117 0 2.72 0.89 5.159 2.294 6.828-0.027 0.12-0.044 0.243-0.044 0.371 0 0.932 0.756 1.688 1.688 1.688s1.688-0.756 1.688-1.688-0.756-1.688-1.688-1.688c-0.177 0-0.344 0.035-0.505 0.086-1.067-1.362-1.746-3.363-1.746-5.596 0-4.096 2.271-7.429 5.064-7.429 2.159 0 4.001 1.996 4.728 4.792 0.631 0.195 1.259 0.44 1.873 0.736-0.65-4.117-3.362-7.216-6.602-7.216z"></path>
<path d="M22.474 13.797c-2.221-1.346-4.711-1.936-6.854-1.665-0.309-0.383-0.778-0.633-1.308-0.633-0.932 0-1.688 0.756-1.688 1.688s0.756 1.688 1.688 1.688c0.716 0 1.324-0.447 1.569-1.076 1.754-0.213 3.833 0.299 5.718 1.442 3.602 2.184 5.441 5.946 4.097 8.389-0.465 0.846-1.286 1.447-2.373 1.738-1.286 0.344-2.817 0.222-4.347-0.297-0.472 0.434-0.984 0.843-1.533 1.22 1.436 0.628 2.923 0.959 4.315 0.959 0.698 0 1.372-0.083 2.002-0.252 1.542-0.412 2.724-1.296 3.416-2.555 1.774-3.224-0.335-8-4.701-10.646z"></path>
<path d="M22.189 18.809c0-0.929-0.756-1.683-1.688-1.683s-1.688 0.754-1.688 1.683c0 0.376 0.128 0.721 0.338 1.001-0.72 1.576-2.106 3.132-3.973 4.264-2.174 1.319-4.605 1.801-6.501 1.295-1.087-0.291-1.908-0.892-2.373-1.738-0.958-1.741-0.293-4.15 1.468-6.182-0.182-0.644-0.316-1.317-0.397-2.011-2.852 2.699-4 6.37-2.55 9.007 0.692 1.259 1.873 2.143 3.416 2.555 0.631 0.169 1.304 0.252 2.002 0.252 1.883 0 3.942-0.601 5.81-1.733 2.158-1.308 3.76-3.138 4.618-5.042 0.851-0.086 1.518-0.795 1.518-1.666z"></path>
</symbol>
<symbol id="icon-sass" viewBox="0 0 32 32">
<path fill="#f06292" style="fill: var(--color28, #f06292)" d="M16.034-0.008c8.837 0 16 7.163 16 16s-7.163 16-16 16c-8.836 0-16-7.163-16-16s7.164-16 16-16v0z"/>
<path fill="#fff" style="fill: var(--color4, #fff)" d="M26.070 6.84c-0.725-2.842-5.436-3.776-9.895-2.192-2.654 0.943-5.527 2.423-7.593 4.355-2.456 2.298-2.848 4.297-2.686 5.132 0.569 2.948 4.609 4.875 6.269 6.305v0.009c-0.49 0.241-4.073 2.055-4.912 3.909-0.885 1.956 0.141 3.36 0.82 3.549 2.104 0.585 4.263-0.467 5.424-2.198 1.12-1.671 1.027-3.827 0.54-4.901 0.671-0.177 1.454-0.257 2.448-0.14 2.807 0.328 3.357 2.080 3.252 2.814s-0.694 1.137-0.891 1.259c-0.197 0.122-0.257 0.164-0.241 0.254 0.024 0.131 0.115 0.127 0.283 0.099 0.231-0.039 1.474-0.596 1.527-1.95 0.067-1.719-1.579-3.641-4.496-3.592-1.201 0.021-1.956 0.135-2.502 0.338-0.040-0.046-0.082-0.091-0.123-0.137-1.803-1.924-5.136-3.285-4.995-5.871 0.051-0.94 0.378-3.416 6.405-6.419 4.937-2.46 8.889-1.783 9.572-0.283 0.976 2.144-2.112 6.127-7.239 6.702-1.954 0.219-2.982-0.538-3.238-0.82-0.269-0.297-0.309-0.31-0.41-0.254-0.164 0.091-0.060 0.353 0 0.509 0.153 0.398 0.782 1.105 1.852 1.457 0.942 0.309 3.236 0.479 6.009-0.594 3.106-1.203 5.532-4.546 4.819-7.339zM12.854 21.322c0.232 0.861 0.207 1.664-0.033 2.391-0.026 0.081-0.056 0.16-0.088 0.24s-0.067 0.157-0.103 0.234c-0.185 0.385-0.435 0.745-0.739 1.077-0.93 1.014-2.229 1.397-2.785 1.074-0.601-0.349-0.3-1.778 0.778-2.918 1.159-1.226 2.828-2.014 2.828-2.014l-0.002-0.005c0.048-0.026 0.097-0.053 0.146-0.080z"/>
</symbol>
<symbol id="icon-sass-mono" viewBox="0 0 32 32">
<path d="M24.405 8.355c-0.605-2.372-4.537-3.152-8.259-1.829-2.215 0.787-4.613 2.022-6.337 3.635-2.050 1.918-2.377 3.586-2.242 4.284 0.475 2.46 3.847 4.069 5.232 5.263v0.007c-0.409 0.201-3.4 1.715-4.1 3.263-0.739 1.633 0.118 2.804 0.684 2.962 1.756 0.488 3.558-0.39 4.527-1.835 0.935-1.394 0.857-3.194 0.451-4.090 0.56-0.148 1.214-0.214 2.043-0.117 2.343 0.274 2.802 1.736 2.714 2.349s-0.579 0.949-0.743 1.050c-0.165 0.102-0.214 0.137-0.201 0.212 0.020 0.11 0.096 0.106 0.236 0.082 0.193-0.033 1.23-0.498 1.275-1.628 0.056-1.435-1.318-3.039-3.752-2.998-1.002 0.017-1.633 0.112-2.088 0.282-0.033-0.038-0.068-0.076-0.103-0.114-1.505-1.606-4.287-2.741-4.169-4.9 0.043-0.785 0.316-2.851 5.346-5.358 4.12-2.053 7.419-1.488 7.989-0.236 0.814 1.789-1.763 5.114-6.042 5.594-1.631 0.183-2.489-0.449-2.703-0.684-0.225-0.248-0.258-0.259-0.342-0.212-0.136 0.076-0.050 0.294 0 0.425 0.128 0.333 0.652 0.922 1.546 1.216 0.786 0.258 2.701 0.399 5.016-0.496 2.592-1.004 4.617-3.794 4.022-6.126zM13.374 20.442c0.194 0.719 0.173 1.389-0.027 1.996-0.022 0.068-0.047 0.134-0.074 0.2s-0.056 0.131-0.086 0.195c-0.155 0.321-0.363 0.622-0.617 0.899-0.776 0.846-1.86 1.166-2.325 0.897-0.502-0.291-0.25-1.484 0.649-2.436 0.968-1.023 2.36-1.681 2.36-1.681l-0.002-0.004c0.040-0.022 0.081-0.044 0.122-0.067z"></path>
</symbol>
<symbol id="icon-typeScript" viewBox="0 0 32 32">
<path fill="#1976d2" style="fill: var(--color29, #1976d2)" d="M0 0h32v32h-32v-32z"/>
<path fill="#fff" style="fill: var(--color4, #fff)" d="M19.102 14.222h-11.789v2.901h4.228v13.099h3.35v-13.099h4.211z"/>
<path fill="#fff" style="fill: var(--color4, #fff)" d="M29.506 17.852c0 0-1.588-1.060-3.384-1.060s-2.442 0.853-2.442 1.765c0 2.354 6.561 2.118 6.561 6.855 0 7.297-10.004 4.060-10.004 4.060v-3.5c0 0 1.913 1.442 4.207 1.442s2.207-1.5 2.207-1.707c0-2.177-6.502-2.177-6.502-7.003 0-6.561 9.474-3.972 9.474-3.972l-0.117 3.119z"/>
</symbol>
<symbol id="icon-location" viewBox="0 0 32 41.22">
<path d="M14.92 0.04c-5.15,0.35 -9.79,3.15 -12.51,7.53 -0.8,1.29 -1.43,2.71 -1.83,4.15 -1.04,3.81 -0.67,7.84 1.05,11.34 0.66,1.33 1.28,2.27 2.33,3.51 0.12,0.14 2.59,3.36 5.49,7.15 3.16,4.12 5.36,6.96 5.47,7.06 0.64,0.58 1.52,0.58 2.16,0 0.11,-0.1 2.31,-2.94 5.47,-7.06 2.9,-3.79 5.37,-7.01 5.49,-7.15 1.05,-1.24 1.67,-2.18 2.33,-3.51 1.94,-3.95 2.16,-8.61 0.59,-12.72 -1.21,-3.18 -3.32,-5.81 -6.18,-7.72 -2.84,-1.89 -6.42,-2.82 -9.86,-2.58l0 0zm1.92 7.75c0.77,0.1 1.37,0.28 2.07,0.62 1.9,0.93 3.2,2.61 3.65,4.73 0.09,0.4 0.1,0.5 0.1,1.26 0,0.92 -0.03,1.19 -0.24,1.91 -0.56,1.93 -2.02,3.55 -3.89,4.31 -0.69,0.29 -1.26,0.42 -2.04,0.48 -1.01,0.09 -2.04,-0.08 -3.02,-0.48 -1.87,-0.76 -3.33,-2.38 -3.89,-4.31 -0.21,-0.72 -0.24,-0.99 -0.24,-1.91 0,-0.76 0.01,-0.86 0.1,-1.26 0.38,-1.81 1.39,-3.32 2.89,-4.31 0.61,-0.4 1.51,-0.78 2.2,-0.93 0.72,-0.16 1.6,-0.2 2.31,-0.11l0 0z"/>
</symbol>
<symbol id="icon-resume" viewBox="0 0 32 38.4" style="fill-rule:evenodd">
<path d="M32 0l-32 0 0 38.4 22.4 0 9.6 -9.6 0 -28.8zm-9.6 28.8l6.98 0 -6.98 7.02 0 -7.02zm-4.8 1.6l-12.8 0 0 1.6 12.8 0 0 -1.6zm0 -4.8l-12.8 0 0 1.6 12.8 0 0 -1.6zm9.6 -3.2l0 -1.6 -22.4 0 0 1.6 22.4 0zm-11.29 -7.95c-1.84,-0.42 -3.55,-0.79 -2.72,-2.36 2.52,-4.75 0.67,-7.29 -1.99,-7.29 -2.71,0 -4.51,2.64 -1.99,7.29 0.85,1.58 -0.92,1.95 -2.72,2.36 -1.63,0.38 -1.69,1.19 -1.69,2.62l0 0.53 12.8 0 0 -0.52c0.01,-1.43 -0.05,-2.25 -1.69,-2.63l0 0zm11.29 1.55l-6.4 0 0 1.6 6.4 0 0 -1.6zm0 -3.2l0 -1.6 -6.4 0 0 1.6 6.4 0zm0 -6.4l-6.4 0 0 1.6 6.4 0 0 -1.6z"/>
</symbol>
<symbol id="icon-github" viewBox="0 0 30.29 35.01">
<path d="M16.07 35.01c-0.63,-0.01 -1.25,-0.04 -1.86,-0.1 -1.52,-0.15 -2.97,-0.5 -4.34,-1.01 0.62,-0.1 0.83,-0.6 0.83,-1.06 0,-0.52 0.01,-1.98 0,-3.82 -6.13,1.33 -7.4,-2.91 -7.4,-2.91 -1,-2.55 -2.45,-3.22 -2.45,-3.22 -2,-1.37 0.15,-1.35 0.15,-1.35 2.21,0.16 3.38,2.28 3.38,2.28 1.97,3.37 5.16,2.39 6.42,1.83 0.2,-1.42 0.77,-2.4 1.4,-2.95 -4.9,-0.55 -10.05,-2.45 -10.05,-10.9 0,-2.4 0.86,-4.37 2.27,-5.91 -0.22,-0.56 -0.98,-2.8 0.22,-5.84 0,0 1.85,-0.59 6.06,2.26 1.76,-0.49 3.65,-0.73 5.52,-0.74 1.88,0.01 3.76,0.25 5.52,0.74 4.21,-2.85 6.06,-2.26 6.06,-2.26 1.21,3.04 0.45,5.28 0.22,5.84 1.41,1.54 2.27,3.51 2.27,5.91 0,8.48 -5.16,10.34 -10.07,10.88 0.79,0.69 1.51,2.01 1.51,4.07 0,2.75 0,5.38 0,6.1 0,0.39 0.16,0.81 0.58,0.98 -1.93,0.75 -4.04,1.17 -6.24,1.18z"/>
</symbol>
<symbol id="icon-linkedin" viewBox="0 0 265.47 249.68">
<path d="M28.05 0.19c-11.55,1.01 -20.02,6.25 -24.81,15.43 -3.83,7.27 -4.24,14.23 -1.36,21.64 5.19,13.52 16.34,20.43 31.67,19.72 7.01,-0.35 12.46,-2.17 18.46,-6.15 8.17,-5.45 11.9,-12.66 11.9,-23.15 0,-18.01 -14.77,-29.3 -35.86,-27.49z"/>
<path d="M189.75 77.96c-16.09,2.67 -28.7,9.63 -37.12,20.48 -1.72,2.22 -3.53,4.03 -3.99,4.03 -1.36,0 -2.06,-3.18 -2.47,-10.99 -0.35,-6.46 -0.5,-7.37 -1.51,-8.32 -1.06,-1.11 -1.26,-1.11 -25.42,-1.37 -13.37,-0.15 -25.07,-0.1 -26.02,0.1 -3.64,0.71 -3.28,-6.8 -3.69,81.96 -0.25,54.32 -0.2,80.65 0.1,81.96 0.71,2.62 2.58,3.48 7.52,3.58 2.12,0.05 13.42,0.05 25.07,-0.05 20.07,-0.1 21.33,-0.15 22.44,-1.06l1.21 -0.96 0.25 -49.88 0.25 -49.83 1.32 -4.03c1.81,-5.9 4.38,-10.19 8.47,-14.02 9.48,-8.93 24.96,-11.4 36.36,-5.8 4.39,2.11 9.33,7.11 11.5,11.6 4.69,9.63 5.09,15.43 5.15,71.87 0,38.93 0.05,40.04 0.95,40.95 0.56,0.55 1.77,1.16 2.68,1.31 0.9,0.15 12.6,0.25 25.92,0.15 23,-0.15 24.36,-0.2 25.37,-1.11 0.55,-0.5 1.16,-1.66 1.31,-2.52 0.15,-0.86 0.05,-26.28 -0.2,-56.54 -0.46,-51.84 -0.56,-55.22 -1.46,-59.51 -1.87,-8.37 -7.17,-20.33 -12.31,-27.84 -3.13,-4.49 -9.38,-10.54 -14.07,-13.57 -6.76,-4.39 -16.14,-8.27 -24.41,-10.08 -4.89,-1.06 -18.11,-1.37 -23.2,-0.51l0 0z"/>
<path d="M6.52 82.3c-1.67,0.76 -2.17,1.31 -2.62,2.87 -0.41,1.36 -0.51,24.46 -0.41,82.01l0.15 80.14 1.21 0.96c1.11,0.91 2.32,0.96 27.54,0.96 22.44,0 26.53,-0.1 27.14,-0.76 1.16,-1.16 1.46,-23.15 1.26,-97.34 -0.1,-53.81 -0.26,-66.27 -0.81,-67.23 -1.41,-2.47 -2.22,-2.52 -27.64,-2.52 -21.94,0 -23.91,0.05 -25.82,0.91l0 0z"/>
</symbol>
<symbol id="icon-mail" viewBox="0 0 33.18 21.82">
<path d="M0.29 0.02c-0.14,0.05 -0.22,0.16 -0.22,0.3 0,0.13 0.05,0.19 0.81,0.79 0.44,0.35 1.65,1.3 2.67,2.12 1.03,0.81 2.57,2.04 3.44,2.73 0.87,0.69 2.16,1.71 2.86,2.27 7.23,5.73 6.62,5.25 6.75,5.25 0.06,0 0.27,-0.13 0.52,-0.32 0.42,-0.34 2.53,-2.01 6.11,-4.85 1.14,-0.9 2.67,-2.11 3.4,-2.69 4.56,-3.61 6.39,-5.07 6.45,-5.14 0.08,-0.1 0.06,-0.29 -0.04,-0.39 -0.09,-0.08 -0.43,-0.08 -16.39,-0.09 -8.96,0 -16.33,0.01 -16.36,0.02l0 0z"/>
<path d="M0.11 3l-0.11 0.09 0 7.87c0,7.69 0,7.88 0.08,7.97 0.17,0.19 0.29,0.13 0.99,-0.42 0.7,-0.55 6.13,-4.87 8.08,-6.42 0.64,-0.5 1.18,-0.96 1.19,-1.01 0.05,-0.15 -0.01,-0.28 -0.19,-0.42 -0.34,-0.28 -4.82,-3.84 -5.93,-4.72 -0.64,-0.51 -1.75,-1.39 -2.48,-1.97 -0.88,-0.7 -1.36,-1.05 -1.42,-1.05 -0.06,0 -0.16,0.04 -0.21,0.08l0 0z"/>
<path d="M32.44 3.15c-0.29,0.22 -0.73,0.57 -3.04,2.41 -0.52,0.42 -1.64,1.3 -2.48,1.97 -4.45,3.54 -4.13,3.27 -4.13,3.44 0,0.17 -0.27,-0.06 4.66,3.87 1.14,0.9 2.78,2.21 3.65,2.9 1.7,1.35 1.78,1.4 1.97,1.19 0.08,-0.09 0.08,-0.22 0.08,-7.96 0,-7.58 0,-7.88 -0.08,-7.96 -0.14,-0.15 -0.3,-0.12 -0.63,0.14l0 0z"/>
<path d="M11.18 12.58c-0.36,0.28 -1.65,1.3 -2.86,2.25 -1.21,0.96 -3.04,2.41 -4.08,3.23 -3.17,2.49 -4.11,3.24 -4.14,3.29 -0.07,0.11 -0.03,0.29 0.08,0.38l0.12 0.09 16.34 0c16.01,-0.02 16.35,-0.02 16.44,-0.1 0.14,-0.12 0.12,-0.32 -0.02,-0.45 -0.07,-0.06 -2.52,-1.99 -5.43,-4.29 -2.92,-2.31 -5.51,-4.35 -5.77,-4.56 -0.32,-0.25 -0.49,-0.36 -0.58,-0.36 -0.08,0 -0.3,0.15 -0.78,0.52 -0.36,0.29 -1.38,1.1 -2.27,1.8l-1.61 1.27 -2.19 -1.72c-2.46,-1.94 -2.37,-1.87 -2.49,-1.87 -0.05,0 -0.39,0.23 -0.76,0.52l0 0z"/>
</symbol>
<symbol id="icon-phone" viewBox="0 0 32 32">
<path d="M17.09 1.05l0 1.06 0.89 0c0.68,0.01 1.01,0.03 1.44,0.1 2.44,0.39 4.53,1.47 6.2,3.22 1.6,1.66 2.59,3.74 2.9,6.08 0.04,0.3 0.07,0.84 0.07,1.31l0.01 0.8 1.04 0 1.05 -0.02 0 -0.85c-0.01,-1.21 -0.12,-2.05 -0.42,-3.2 -0.42,-1.63 -1.18,-3.16 -2.27,-4.6 -0.4,-0.53 -1.61,-1.74 -2.17,-2.19 -1.95,-1.54 -4.28,-2.47 -6.78,-2.72 -0.23,-0.02 -0.77,-0.04 -1.19,-0.04l-0.77 0 0 1.05 0 0z"/>
<path d="M16.1 3.87l-0.14 0.02 -0.01 1.04 -0.01 1.04 0.92 0.02c0.77,0.02 1,0.04 1.43,0.13 2.45,0.52 4.47,2.06 5.57,4.24 0.6,1.2 0.85,2.23 0.85,3.59l0 0.8 1.07 0 1.05 0 -0.02 -0.93c-0.02,-1.03 -0.08,-1.5 -0.3,-2.35 -0.35,-1.39 -1.04,-2.76 -1.96,-3.88 -0.36,-0.45 -1.21,-1.28 -1.69,-1.65 -1.41,-1.08 -3.14,-1.79 -4.94,-2.01 -0.4,-0.05 -1.62,-0.09 -1.82,-0.06l0 0z"/>
<path d="M4.97 4.96c-0.55,0.06 -0.95,0.23 -1.53,0.66 -1.38,1.02 -2.49,2.88 -3.15,5.32 -0.24,0.87 -0.31,1.4 -0.28,2.16 0.08,2.12 1.04,4.56 2.93,7.42 0.84,1.27 2.19,3.02 3.01,3.89 0.38,0.39 1.15,1.07 2.05,1.79 2.81,2.26 5.66,3.84 7.92,4.39 0.77,0.18 1.35,0.26 2.07,0.26 0.7,0 1.07,-0.06 1.9,-0.28 2.81,-0.76 4.92,-2.17 5.74,-3.84 0.17,-0.33 0.2,-0.43 0.24,-0.82 0.04,-0.36 0.03,-0.52 -0.02,-0.88 -0.23,-1.51 -1.09,-2.55 -2.85,-3.4 -1.77,-0.86 -3.13,-1.04 -4.14,-0.54 -0.4,0.21 -0.64,0.42 -1.06,0.99 -0.71,0.95 -1.29,1.42 -2.09,1.71 -0.37,0.13 -1.11,0.15 -1.55,0.04 -0.43,-0.11 -1.08,-0.42 -1.48,-0.71 -1.27,-0.9 -3.93,-3.57 -4.93,-4.94 -0.24,-0.33 -0.62,-1.1 -0.71,-1.44 -0.18,-0.68 -0.11,-1.36 0.2,-2.01 0.31,-0.64 0.76,-1.13 1.6,-1.75 0.21,-0.15 0.46,-0.37 0.57,-0.48 0.96,-1.08 0.79,-3 -0.48,-5.23 -0.83,-1.47 -1.97,-2.24 -3.44,-2.31 -0.21,-0.01 -0.44,-0.01 -0.52,0l0 0z"/>
<path d="M14.62 8.92l0 1.06 0.51 -0.02c2.12,-0.1 4.14,1.09 5.05,2.97 0.4,0.82 0.55,1.48 0.55,2.41 0,0.34 -0.01,0.64 -0.02,0.67 0,0.05 0.19,0.06 1.04,0.07l1.05 0.01 0.03 -0.15c0.04,-0.24 0.03,-0.95 -0.02,-1.39 -0.36,-3.41 -2.98,-6.14 -6.35,-6.63 -0.27,-0.04 -0.74,-0.06 -1.15,-0.06l-0.69 0 0 1.06 0 0z"/>
</symbol>
</defs>
</svg>
