<?xml version="1.0" encoding="UTF-8"?>
<!DOCTYPE svg PUBLIC "-//W3C//DTD SVG 1.1//EN" "http://www.w3.org/Graphics/SVG/1.1/DTD/svg11.dtd">
<!-- Creator: CorelDRAW 2019 (64-Bit) -->
<svg xmlns="http://www.w3.org/2000/svg" xml:space="preserve" width="32px" height="30px" version="1.1" style="shape-rendering:geometricPrecision; text-rendering:geometricPrecision; image-rendering:optimizeQuality; fill-rule:evenodd; clip-rule:evenodd"
viewBox="0 0 265.47 249.68"
 xmlns:xlink="http://www.w3.org/1999/xlink">
 <defs>
  <style type="text/css">
   <![CDATA[
    .fil0 {fill:black}
   ]]>
  </style>
 </defs>
 <g id="Layer_x0020_1">
  <metadata id="CorelCorpID_0Corel-Layer"/>
  <g id="_1937694900208">
   <path class="fil0" d="M28.05 0.19c-11.55,1.01 -20.02,6.25 -24.81,15.43 -3.83,7.27 -4.24,14.23 -1.36,21.64 5.19,13.52 16.34,20.43 31.67,19.72 7.01,-0.35 12.46,-2.17 18.46,-6.15 8.17,-5.45 11.9,-12.66 11.9,-23.15 0,-18.01 -14.77,-29.3 -35.86,-27.49z"/>
   <path class="fil0" d="M189.75 77.96c-16.09,2.67 -28.7,9.63 -37.12,20.48 -1.72,2.22 -3.53,4.03 -3.99,4.03 -1.36,0 -2.06,-3.18 -2.47,-10.99 -0.35,-6.46 -0.5,-7.37 -1.51,-8.32 -1.06,-1.11 -1.26,-1.11 -25.42,-1.37 -13.37,-0.15 -25.07,-0.1 -26.02,0.1 -3.64,0.71 -3.28,-6.8 -3.69,81.96 -0.25,54.32 -0.2,80.65 0.1,81.96 0.71,2.62 2.58,3.48 7.52,3.58 2.12,0.05 13.42,0.05 25.07,-0.05 20.07,-0.1 21.33,-0.15 22.44,-1.06l1.21 -0.96 0.25 -49.88 0.25 -49.83 1.32 -4.03c1.81,-5.9 4.38,-10.19 8.47,-14.02 9.48,-8.93 24.96,-11.4 36.36,-5.8 4.39,2.11 9.33,7.11 11.5,11.6 4.69,9.63 5.09,15.43 5.15,71.87 0,38.93 0.05,40.04 0.95,40.95 0.56,0.55 1.77,1.16 2.68,1.31 0.9,0.15 12.6,0.25 25.92,0.15 23,-0.15 24.36,-0.2 25.37,-1.11 0.55,-0.5 1.16,-1.66 1.31,-2.52 0.15,-0.86 0.05,-26.28 -0.2,-56.54 -0.46,-51.84 -0.56,-55.22 -1.46,-59.51 -1.87,-8.37 -7.17,-20.33 -12.31,-27.84 -3.13,-4.49 -9.38,-10.54 -14.07,-13.57 -6.76,-4.39 -16.14,-8.27 -24.41,-10.08 -4.89,-1.06 -18.11,-1.37 -23.2,-0.51l0 0z"/>
   <path class="fil0" d="M6.52 82.3c-1.67,0.76 -2.17,1.31 -2.62,2.87 -0.41,1.36 -0.51,24.46 -0.41,82.01l0.15 80.14 1.21 0.96c1.11,0.91 2.32,0.96 27.54,0.96 22.44,0 26.53,-0.1 27.14,-0.76 1.16,-1.16 1.46,-23.15 1.26,-97.34 -0.1,-53.81 -0.26,-66.27 -0.81,-67.23 -1.41,-2.47 -2.22,-2.52 -27.64,-2.52 -21.94,0 -23.91,0.05 -25.82,0.91l0 0z"/>
  </g>
 </g>
</svg>
