<?xml version="1.0" encoding="UTF-8"?>
<!DOCTYPE svg PUBLIC "-//W3C//DTD SVG 1.1//EN" "http://www.w3.org/Graphics/SVG/1.1/DTD/svg11.dtd">
<!-- Creator: CorelDRAW 2019 (64-Bit) -->
<svg xmlns="http://www.w3.org/2000/svg" xml:space="preserve" width="32px" height="21px" version="1.1" style="shape-rendering:geometricPrecision; text-rendering:geometricPrecision; image-rendering:optimizeQuality; fill-rule:evenodd; clip-rule:evenodd"
viewBox="0 0 33.18 21.82"
 xmlns:xlink="http://www.w3.org/1999/xlink">
 <defs>
  <style type="text/css">
   <![CDATA[
    .fil0 {fill:black}
   ]]>
  </style>
 </defs>
 <g id="Layer_x0020_1">
  <metadata id="CorelCorpID_0Corel-Layer"/>
  <g id="_1937935900448">
   <path class="fil0" d="M0.29 0.02c-0.14,0.05 -0.22,0.16 -0.22,0.3 0,0.13 0.05,0.19 0.81,0.79 0.44,0.35 1.65,1.3 2.67,2.12 1.03,0.81 2.57,2.04 3.44,2.73 0.87,0.69 2.16,1.71 2.86,2.27 7.23,5.73 6.62,5.25 6.75,5.25 0.06,0 0.27,-0.13 0.52,-0.32 0.42,-0.34 2.53,-2.01 6.11,-4.85 1.14,-0.9 2.67,-2.11 3.4,-2.69 4.56,-3.61 6.39,-5.07 6.45,-5.14 0.08,-0.1 0.06,-0.29 -0.04,-0.39 -0.09,-0.08 -0.43,-0.08 -16.39,-0.09 -8.96,0 -16.33,0.01 -16.36,0.02l0 0z"/>
   <path class="fil0" d="M0.11 3l-0.11 0.09 0 7.87c0,7.69 0,7.88 0.08,7.97 0.17,0.19 0.29,0.13 0.99,-0.42 0.7,-0.55 6.13,-4.87 8.08,-6.42 0.64,-0.5 1.18,-0.96 1.19,-1.01 0.05,-0.15 -0.01,-0.28 -0.19,-0.42 -0.34,-0.28 -4.82,-3.84 -5.93,-4.72 -0.64,-0.51 -1.75,-1.39 -2.48,-1.97 -0.88,-0.7 -1.36,-1.05 -1.42,-1.05 -0.06,0 -0.16,0.04 -0.21,0.08l0 0z"/>
   <path class="fil0" d="M32.44 3.15c-0.29,0.22 -0.73,0.57 -3.04,2.41 -0.52,0.42 -1.64,1.3 -2.48,1.97 -4.45,3.54 -4.13,3.27 -4.13,3.44 0,0.17 -0.27,-0.06 4.66,3.87 1.14,0.9 2.78,2.21 3.65,2.9 1.7,1.35 1.78,1.4 1.97,1.19 0.08,-0.09 0.08,-0.22 0.08,-7.96 0,-7.58 0,-7.88 -0.08,-7.96 -0.14,-0.15 -0.3,-0.12 -0.63,0.14l0 0z"/>
   <path class="fil0" d="M11.18 12.58c-0.36,0.28 -1.65,1.3 -2.86,2.25 -1.21,0.96 -3.04,2.41 -4.08,3.23 -3.17,2.49 -4.11,3.24 -4.14,3.29 -0.07,0.11 -0.03,0.29 0.08,0.38l0.12 0.09 16.34 0c16.01,-0.02 16.35,-0.02 16.44,-0.1 0.14,-0.12 0.12,-0.32 -0.02,-0.45 -0.07,-0.06 -2.52,-1.99 -5.43,-4.29 -2.92,-2.31 -5.51,-4.35 -5.77,-4.56 -0.32,-0.25 -0.49,-0.36 -0.58,-0.36 -0.08,0 -0.3,0.15 -0.78,0.52 -0.36,0.29 -1.38,1.1 -2.27,1.8l-1.61 1.27 -2.19 -1.72c-2.46,-1.94 -2.37,-1.87 -2.49,-1.87 -0.05,0 -0.39,0.23 -0.76,0.52l0 0z"/>
  </g>
 </g>
</svg>
