<?xml version="1.0" encoding="UTF-8"?>
<svg xmlns="http://www.w3.org/2000/svg" xml:space="preserve" version="1.1"
 xmlns:xlink="http://www.w3.org/1999/xlink">
 <defs>
 <symbol id="zabiyaka-logo" viewBox="0 0 781.04 781.04">
  <path d="M390.62 490.49c-92.85,0 -180.84,-2.68 -259.02,-57.4 -78.95,-55.28 -129.69,-152.69 -130.78,-332.72l-0.61 -100.36 360.45 -0.01 0 199.95 -152.08 0c7.89,37.08 20.72,58.53 36.96,69.9 28.18,19.73 84.49,20.7 145.08,20.7 92.86,0 180.85,2.68 259.03,57.41 78.95,55.27 129.69,152.68 130.78,332.71l0.61 100.37 -360.45 0 0 -199.95 152.08 0c-7.89,-37.08 -20.72,-58.53 -36.96,-69.9 -28.18,-19.73 -84.49,-20.7 -145.09,-20.7zm340.85 -150.62c30.42,-56.9 48.11,-134.01 48.75,-239.5l0.6 -100.37 -360.44 0 0 199.95 152.07 0c-3.88,18.26 -8.97,32.73 -15.07,44.08 43.47,9.79 85.62,26.52 126.24,54.95 17.09,11.97 33.09,25.51 47.85,40.89zm-682.11 101.3c-30.42,56.9 -48.11,134.01 -48.75,239.5l-0.61 100.36 360.44 0.01 0 -199.95 -152.07 0c3.88,-18.27 8.97,-32.74 15.07,-44.08 -43.47,-9.79 -85.62,-26.52 -126.23,-54.96 -17.1,-11.97 -33.1,-25.51 -47.85,-40.88z"/>
 </symbol>
 </defs>
</svg>
